<svg width="31" height="20" viewBox="0 0 31 20" fill="none" xmlns="http://www.w3.org/2000/svg">
<path d="M27.1745 13.2164L27.2944 13.0309M27.1745 13.2164L27.2944 6.96912C27.7701 7.73158 28.6614 8.35574 29.8008 8.72425C30.1634 8.84714 30.467 9.03175 30.6784 9.25802C30.8898 9.48429 31.001 9.74358 31 10.0077C31.0006 10.2698 30.889 10.5269 30.6774 10.7506C30.4658 10.9744 30.1624 11.1561 29.8008 11.2758M27.1745 13.2164C26.6848 13.9838 26.6296 14.8378 27.0186 15.6288M27.1745 13.2164L27.0186 15.6288M27.2944 13.0309C27.7766 12.2711 28.6661 11.6482 29.8008 11.2758M27.2944 13.0309L26.8745 12.7595L26.8734 12.7612M27.2944 13.0309L29.6434 9.19885M29.8008 11.2758L29.6437 10.8011C29.6439 10.801 29.6441 10.8009 29.6442 10.8009M29.8008 11.2758L29.6448 10.8007C29.6446 10.8008 29.6444 10.8008 29.6442 10.8009M29.6434 9.19885C28.431 8.80604 27.4259 8.12448 26.8702 7.23379L26.8655 7.22625L26.861 7.21855C26.8382 7.1789 26.8113 7.13871 26.7798 7.09831L26.7655 7.07991L26.753 7.06026C26.1735 6.15226 26.1009 5.11387 26.5688 4.16062C26.63 4.03249 26.6336 3.90968 26.587 3.7875C26.5367 3.65561 26.417 3.50018 26.1971 3.35777C25.9781 3.21601 25.6869 3.10572 25.3506 3.05139C25.016 2.99735 24.6638 3.00313 24.3353 3.06756C23.0321 3.33855 21.6232 3.29882 20.3581 2.95345L20.0775 2.88561L20.0663 2.88291L20.0663 2.88278C18.8154 2.54969 17.7433 1.92752 17.0811 1.08674C16.9612 0.937002 16.7584 0.787082 16.4724 0.674595C16.1877 0.56263 15.8507 0.5 15.5 0.5C15.1493 0.5 14.8123 0.56263 14.5276 0.674595C14.2421 0.786894 14.0395 0.936504 13.9195 1.08599C13.2601 1.92969 12.1859 2.55254 10.9325 2.88308L10.9226 2.88571L10.9225 2.88561L10.6421 2.95342C9.3802 3.29847 7.97451 3.33807 6.6746 3.06713C6.34597 3.00011 5.9921 2.9924 5.6554 3.04561C5.31733 3.09902 5.0246 3.2093 4.80507 3.35145C4.58452 3.49426 4.46584 3.64998 4.41686 3.78127C4.37143 3.90305 4.37626 4.0263 4.44085 4.15577L4.44308 4.16025L4.44306 4.16026C4.90785 5.11584 4.83001 6.15506 4.2459 7.06202L4.24018 7.07091L4.24008 7.07085L4.12553 7.24071C3.57218 8.13043 2.5673 8.80988 1.35609 9.19903C1.05516 9.30155 0.829658 9.44666 0.686966 9.59937C0.546527 9.74968 0.499554 9.8907 0.500003 10.0058L0.500016 10.009C0.49973 10.1207 0.545874 10.259 0.685884 10.4071C0.828637 10.558 1.05455 10.7012 1.35573 10.8009C2.56319 11.1973 3.56446 11.8766 4.12664 12.7612L4.24547 12.945L4.2459 12.9457C4.83001 13.8527 4.90785 14.8919 4.44306 15.8475L4.44277 15.8481C4.38011 15.9765 4.37596 16.0991 4.42224 16.2209C4.4721 16.3521 4.59151 16.5073 4.81186 16.6493C5.03118 16.7907 5.32302 16.9004 5.65977 16.9535L5.58176 17.4474L5.65977 16.9536C5.99549 17.0066 6.34832 16.9991 6.67621 16.9325L6.67866 16.932C7.25136 16.8188 7.84532 16.7611 8.44179 16.7602H8.4421C9.19478 16.7595 9.94243 16.8563 10.6417 17.0465L10.9225 17.1144L10.934 17.1172L10.934 17.1173C12.1844 17.451 13.256 18.0731 13.9189 18.9132C14.0388 19.063 14.2416 19.2129 14.5276 19.3254L14.3446 19.7907L14.5276 19.3254C14.8123 19.4374 15.1493 19.5 15.5 19.5C15.8507 19.5 16.1877 19.4374 16.4724 19.3254L16.6554 19.7907L16.4724 19.3254C16.7587 19.2128 16.9616 19.0627 17.0815 18.9128C17.7464 18.0747 18.8165 17.4531 20.0652 17.1175L20.0774 17.1142L20.0775 17.1144L20.3597 17.0461C21.6269 16.7092 23.0308 16.6697 24.3351 16.9324L24.3358 16.9325C24.6637 16.9991 25.0165 17.0066 25.3522 16.9536L25.4302 17.4474L25.3522 16.9535C25.689 16.9004 25.9808 16.7907 26.2001 16.6493C26.4205 16.5073 26.5399 16.3521 26.5898 16.2209C26.636 16.0991 26.6319 15.9765 26.5692 15.8481L27.0186 15.6288M29.6434 9.19885C29.9446 9.30138 30.1703 9.44657 30.313 9.59937C30.4535 9.74968 30.5004 9.8907 30.5 10.0058L30.5 10.009C30.5003 10.1207 30.4541 10.259 30.3141 10.4071C30.1714 10.558 29.9454 10.7012 29.6442 10.8009M29.6434 9.19885L26.8734 12.7612M27.0186 15.6288L26.5699 15.8494C26.1008 14.8955 26.1731 13.8562 26.753 12.9475L26.7545 12.945L26.8722 12.7629C26.8726 12.7623 26.873 12.7618 26.8734 12.7612M26.8734 12.7612C27.4355 11.8766 28.4368 11.1974 29.6442 10.8009M22.6465 7.73001L23.0341 7.99297C23.1483 7.82462 23.2185 7.62654 23.2208 7.41298C23.2231 7.19926 23.157 6.99952 23.0455 6.82873C22.9357 6.66076 22.7856 6.52543 22.619 6.42168C22.3015 6.22157 21.9043 6.12439 21.5141 6.12439C21.1233 6.12439 20.7253 6.22191 20.4075 6.42274L20.4075 6.42273L20.4037 6.42518L13.4788 10.8899L10.6195 9.05353L10.6195 9.05352L10.6164 9.05156C10.2986 8.85073 9.90072 8.75321 9.50987 8.75321C9.11902 8.75321 8.72108 8.85073 8.4033 9.05156L8.40328 9.05153L8.39833 9.05474C8.08126 9.26039 7.82168 9.59506 7.82168 10.0193C7.82168 10.4436 8.08126 10.7783 8.39833 10.9839L8.39947 10.9847L12.3569 13.5362L12.3585 13.5372C12.5199 13.6404 12.7019 13.7163 12.8916 13.7663L13.0189 13.2828L12.8916 13.7663C13.0815 13.8163 13.2813 13.8408 13.4807 13.8401C13.4808 13.8401 13.481 13.8401 13.4812 13.8401L13.4793 13.3401C13.7939 13.3393 14.0954 13.2588 14.3188 13.1159L22.6465 7.73001ZM22.6465 7.73001L23.0341 7.99298C22.9212 8.15922 22.7687 8.29265 22.6001 8.39451L22.2192 8.62459L22.2154 8.61963L22.6465 7.73001Z" stroke="#9EFF00"/>
</svg>
