<svg width="31" height="23" viewBox="0 0 31 23" fill="none" xmlns="http://www.w3.org/2000/svg">
<path d="M25.4815 3.41592L26.6004 2.52479H25.17H5.833H4.39996L5.52196 3.41627L7.15845 4.71652L7.15896 4.71693L14.2584 10.3729L14.2605 10.3745C14.992 10.9511 16.008 10.9511 16.7395 10.3745L16.7414 10.373L24.1014 4.51501L24.1015 4.51493L25.4815 3.41592ZM3.31137 4.24176L2.5 3.59598V4.63298V18.2294C2.5 19.3355 3.39299 20.2418 4.5 20.2418H26.5C27.607 20.2418 28.5 19.3355 28.5 18.2294V4.636V3.59925L27.6887 4.24473L17.9787 11.97L17.9778 11.9707C17.2496 12.5528 16.3706 12.8393 15.5 12.8393C14.6294 12.8393 13.7504 12.5528 13.0222 11.9707L13.0214 11.9701L3.31137 4.24176ZM4.5003 0.5H26.5C28.701 0.5 30.5 2.30794 30.5 4.53719V18.2294C30.5 20.4587 28.701 22.2666 26.5 22.2666H4.5C2.29901 22.2666 0.5 20.4587 0.5 18.2294V4.53748C0.501248 3.46574 0.924094 2.43908 1.67449 1.68248C2.42474 0.926025 3.44107 0.501254 4.5003 0.5Z" fill="#9EFF00" stroke="black"/>
</svg>
