<svg width="36" height="28" viewBox="0 0 36 28" fill="none" xmlns="http://www.w3.org/2000/svg">
<ellipse cx="18" cy="14" rx="18" ry="14" fill="#1D1B1B"/>
<path d="M23.573 9.595C23.3475 9.595 23.1271 9.64778 22.9396 9.74668C22.7522 9.84557 22.6061 9.98613 22.5198 10.1506C22.4335 10.315 22.4109 10.496 22.4549 10.6706C22.4989 10.8452 22.6075 11.0055 22.7669 11.1314C22.9263 11.2573 23.1295 11.343 23.3506 11.3777C23.5717 11.4124 23.801 11.3946 24.0093 11.3265C24.2176 11.2584 24.3956 11.143 24.5209 10.995C24.6461 10.847 24.713 10.673 24.713 10.495C24.713 10.2563 24.5929 10.0274 24.3791 9.8586C24.1653 9.68982 23.8753 9.595 23.573 9.595ZM27.943 11.41C27.9245 10.7877 27.7769 10.1721 27.506 9.5875C27.2644 9.08735 26.8885 8.63446 26.404 8.26C25.9336 7.87557 25.3586 7.58063 24.7225 7.3975C23.984 7.17712 23.2033 7.05791 22.414 7.045C21.407 7 21.084 7 18.5 7C15.916 7 15.593 7 14.586 7.045C13.7967 7.05791 13.016 7.17712 12.2775 7.3975C11.6426 7.58249 11.0681 7.87717 10.596 8.26C10.1091 8.63138 9.73547 9.08533 9.5035 9.5875C9.22435 10.1705 9.07335 10.7869 9.057 11.41C9 12.205 9 12.46 9 14.5C9 16.54 9 16.795 9.057 17.59C9.07335 18.2131 9.22435 18.8295 9.5035 19.4125C9.73547 19.9147 10.1091 20.3686 10.596 20.74C11.0681 21.1228 11.6426 21.4175 12.2775 21.6025C13.016 21.8229 13.7967 21.9421 14.586 21.955C15.593 22 15.916 22 18.5 22C21.084 22 21.407 22 22.414 21.955C23.2033 21.9421 23.984 21.8229 24.7225 21.6025C25.3586 21.4194 25.9336 21.1244 26.404 20.74C26.8906 20.3669 27.2669 19.9136 27.506 19.4125C27.7769 18.8279 27.9245 18.2123 27.943 17.59C27.943 16.795 28 16.54 28 14.5C28 12.46 28 12.205 27.943 11.41ZM26.233 17.5C26.2261 17.9761 26.1169 18.4478 25.91 18.895C25.7583 19.2214 25.5147 19.5163 25.1975 19.7575C24.8894 20.0054 24.5166 20.1973 24.105 20.32C23.5385 20.4833 22.941 20.5695 22.338 20.575C21.388 20.6125 21.0365 20.62 18.538 20.62C16.0395 20.62 15.688 20.62 14.738 20.575C14.1118 20.5843 13.4884 20.5081 12.895 20.35C12.5015 20.2211 12.1458 20.0296 11.85 19.7875C11.5347 19.5466 11.2941 19.2514 11.147 18.925C10.9151 18.4714 10.7864 17.989 10.767 17.5C10.767 16.75 10.71 16.4725 10.71 14.5C10.71 12.5275 10.71 12.25 10.767 11.5C10.7713 11.0133 10.8838 10.531 11.0995 10.075C11.2667 9.75843 11.5235 9.47624 11.85 9.25C12.1386 8.99213 12.4953 8.78732 12.895 8.65C13.4741 8.48503 14.0844 8.39881 14.7 8.395C15.65 8.395 16.0015 8.35 18.5 8.35C20.9985 8.35 21.35 8.35 22.3 8.395C22.903 8.40046 23.5005 8.48668 24.067 8.65C24.4987 8.77649 24.8862 8.98214 25.1975 9.25C25.5088 9.48038 25.7521 9.76205 25.91 10.075C26.1211 10.5317 26.2304 11.0138 26.233 11.5C26.2805 12.25 26.29 12.5275 26.29 14.5C26.29 16.4725 26.2805 16.75 26.233 17.5ZM18.5 10.6525C17.5365 10.654 16.5952 10.8809 15.795 11.3046C14.9948 11.7282 14.3717 12.3296 14.0043 13.0328C13.6368 13.736 13.5417 14.5094 13.7308 15.2552C13.9199 16.001 14.3848 16.6859 15.0668 17.2232C15.7487 17.7606 16.6171 18.1263 17.5622 18.2741C18.5073 18.422 19.4867 18.3453 20.3767 18.0539C21.2667 17.7625 22.0272 17.2693 22.5623 16.6368C23.0974 16.0042 23.383 15.2606 23.383 14.5C23.3843 13.9938 23.2587 13.4925 23.0137 13.0247C22.7686 12.557 22.4088 12.1321 21.955 11.7745C21.5012 11.417 20.9624 11.1338 20.3694 10.9412C19.7765 10.7486 19.1411 10.6505 18.5 10.6525ZM18.5 16.9975C17.8743 16.9975 17.2627 16.851 16.7425 16.5766C16.2222 16.3022 15.8167 15.9121 15.5773 15.4558C15.3379 14.9994 15.2752 14.4972 15.3973 14.0128C15.5193 13.5283 15.8206 13.0833 16.2631 12.734C16.7055 12.3847 17.2692 12.1469 17.8828 12.0505C18.4965 11.9541 19.1326 12.0036 19.7106 12.1926C20.2887 12.3816 20.7827 12.7018 21.1304 13.1125C21.478 13.5232 21.6635 14.006 21.6635 14.5C21.6635 14.828 21.5817 15.1527 21.4227 15.4558C21.2637 15.7588 21.0307 16.0341 20.7369 16.266C20.4432 16.4979 20.0944 16.6819 19.7106 16.8074C19.3268 16.9329 18.9154 16.9975 18.5 16.9975Z" fill="#9EFF00"/>
</svg>
