<svg width="36" height="28" viewBox="0 0 36 28" fill="none" xmlns="http://www.w3.org/2000/svg">
<ellipse cx="18" cy="14" rx="18" ry="14" fill="#1D1B1B"/>
<path fill-rule="evenodd" clip-rule="evenodd" d="M24.5648 6H10.4352C9.09717 6 8 6.98179 8 8.17887V20.8211C8 22.0182 9.09717 23 10.4352 23H24.5647C25.9029 23 27 22.0182 27 20.8211V8.17887C27 6.98179 25.9029 6 24.5648 6ZM14.5312 14.21V19.4583H11.9583V12.8354H14.5312V14.21ZM13.2396 11.8483C12.5239 11.8483 11.9431 11.329 11.9431 10.6882C11.9431 10.0472 12.5239 9.5286 13.2396 9.5286C13.9564 9.5286 14.5367 10.0473 14.5367 10.6882C14.5367 11.329 13.9565 11.8483 13.2396 11.8483ZM23.0417 15.8458V19.4583H20.825V16.2413C20.825 15.471 20.7318 14.4803 19.5518 14.4803C18.354 14.4803 18.1729 15.3189 18.1729 16.1858V19.4583H16.0354V12.8354H18.0938V13.7208H18.1157C18.4227 13.225 19.1748 12.8347 20.2948 12.8347C22.1818 12.8347 22.823 13.6331 22.9985 14.8822C23.0402 15.1754 23.0562 15.4917 23.0562 15.8458H23.0417Z" fill="#9EFF00"/>
</svg>
