<svg width="12" height="14" viewBox="0 0 12 14" fill="none" xmlns="http://www.w3.org/2000/svg">
<path d="M6 0C4.4087 0 2.88258 0.589997 1.75736 1.6402C0.632141 2.6904 0 4.11477 0 5.59998C0 9.37997 5.2875 13.65 5.5125 13.832C5.64835 13.9404 5.82124 14 6 14C6.17876 14 6.35165 13.9404 6.4875 13.832C6.75 13.65 12 9.37997 12 5.59998C12 4.11477 11.3679 2.6904 10.2426 1.6402C9.11742 0.589997 7.5913 0 6 0ZM6 12.355C4.4025 10.955 1.5 7.93797 1.5 5.59998C1.5 4.48608 1.97411 3.41779 2.81802 2.63014C3.66193 1.84249 4.80653 1.4 6 1.4C7.19347 1.4 8.33807 1.84249 9.18198 2.63014C10.0259 3.41779 10.5 4.48608 10.5 5.59998C10.5 7.93797 7.5975 10.962 6 12.355ZM6 2.79999C5.40666 2.79999 4.82664 2.96421 4.33329 3.27187C3.83994 3.57954 3.45542 4.01684 3.22836 4.52847C3.0013 5.0401 2.94189 5.60309 3.05764 6.14623C3.1734 6.68938 3.45912 7.18829 3.87868 7.57987C4.29824 7.97146 4.83279 8.23813 5.41473 8.34617C5.99667 8.45421 6.59987 8.39876 7.14805 8.18684C7.69623 7.97491 8.16476 7.61603 8.49441 7.15557C8.82405 6.69512 9 6.15377 9 5.59998C9 4.85738 8.68393 4.14519 8.12132 3.62009C7.55871 3.09499 6.79565 2.79999 6 2.79999ZM6 6.99998C5.70333 6.99998 5.41332 6.91787 5.16665 6.76404C4.91997 6.6102 4.72771 6.39155 4.61418 6.13574C4.50065 5.87992 4.47094 5.59843 4.52882 5.32686C4.5867 5.05528 4.72956 4.80583 4.93934 4.61004C5.14912 4.41424 5.41639 4.28091 5.70736 4.22689C5.99834 4.17287 6.29994 4.20059 6.57403 4.30655C6.84811 4.41252 7.08238 4.59196 7.2472 4.82219C7.41203 5.05241 7.5 5.32309 7.5 5.59998C7.5 5.97128 7.34196 6.32738 7.06066 6.58993C6.77936 6.85248 6.39782 6.99998 6 6.99998Z" fill="#9EFF00"/>
</svg>
