<svg width="20" height="21" viewBox="0 0 20 21" fill="none" xmlns="http://www.w3.org/2000/svg">
<path d="M10 11.0909C9.61944 11.0873 9.24664 11.1779 8.9318 11.3503C8.61696 11.5228 8.37518 11.769 8.23902 12.0556C8.10285 12.3423 8.07883 12.6557 8.17019 12.9537C8.26154 13.2517 8.46389 13.52 8.75 13.7225V15.124C8.75 15.3914 8.8817 15.6478 9.11612 15.8369C9.35054 16.026 9.66848 16.1322 10 16.1322C10.3315 16.1322 10.6495 16.026 10.8839 15.8369C11.1183 15.6478 11.25 15.3914 11.25 15.124V13.7225C11.5361 13.52 11.7385 13.2517 11.8298 12.9537C11.9212 12.6557 11.8972 12.3423 11.761 12.0556C11.6248 11.769 11.383 11.5228 11.0682 11.3503C10.7534 11.1779 10.3806 11.0873 10 11.0909ZM16.25 7.05785V5.04132C16.25 3.70428 15.5915 2.422 14.4194 1.47657C13.2473 0.531138 11.6576 0 10 0C8.3424 0 6.75269 0.531138 5.58058 1.47657C4.40848 2.422 3.75 3.70428 3.75 5.04132V7.05785C2.75544 7.05785 1.80161 7.37653 1.09835 7.94379C0.395088 8.51105 0 9.28042 0 10.0826V17.1405C0 17.9427 0.395088 18.7121 1.09835 19.2793C1.80161 19.8466 2.75544 20.1653 3.75 20.1653H16.25C17.2446 20.1653 18.1984 19.8466 18.9017 19.2793C19.6049 18.7121 20 17.9427 20 17.1405V10.0826C20 9.28042 19.6049 8.51105 18.9017 7.94379C18.1984 7.37653 17.2446 7.05785 16.25 7.05785ZM6.25 5.04132C6.25 4.2391 6.64509 3.46973 7.34835 2.90247C8.05161 2.33521 9.00544 2.01653 10 2.01653C10.9946 2.01653 11.9484 2.33521 12.6517 2.90247C13.3549 3.46973 13.75 4.2391 13.75 5.04132V7.05785H6.25V5.04132ZM17.5 17.1405C17.5 17.4079 17.3683 17.6644 17.1339 17.8534C16.8995 18.0425 16.5815 18.1488 16.25 18.1488H3.75C3.41848 18.1488 3.10054 18.0425 2.86612 17.8534C2.6317 17.6644 2.5 17.4079 2.5 17.1405V10.0826C2.5 9.81524 2.6317 9.55878 2.86612 9.36969C3.10054 9.18061 3.41848 9.07438 3.75 9.07438H16.25C16.5815 9.07438 16.8995 9.18061 17.1339 9.36969C17.3683 9.55878 17.5 9.81524 17.5 10.0826V17.1405Z" fill="#9EFF00"/>
<path d="M10 11.0909C9.61944 11.0873 9.24664 11.1779 8.9318 11.3503C8.61696 11.5228 8.37518 11.769 8.23902 12.0556C8.10285 12.3423 8.07883 12.6557 8.17019 12.9537C8.26154 13.2517 8.46389 13.52 8.75 13.7225V15.124C8.75 15.3914 8.8817 15.6478 9.11612 15.8369C9.35054 16.026 9.66848 16.1322 10 16.1322C10.3315 16.1322 10.6495 16.026 10.8839 15.8369C11.1183 15.6478 11.25 15.3914 11.25 15.124V13.7225C11.5361 13.52 11.7385 13.2517 11.8298 12.9537C11.9212 12.6557 11.8972 12.3423 11.761 12.0556C11.6248 11.769 11.383 11.5228 11.0682 11.3503C10.7534 11.1779 10.3806 11.0873 10 11.0909ZM16.25 7.05785V5.04132C16.25 3.70428 15.5915 2.422 14.4194 1.47657C13.2473 0.531138 11.6576 0 10 0C8.3424 0 6.75269 0.531138 5.58058 1.47657C4.40848 2.422 3.75 3.70428 3.75 5.04132V7.05785C2.75544 7.05785 1.80161 7.37653 1.09835 7.94379C0.395088 8.51105 0 9.28042 0 10.0826V17.1405C0 17.9427 0.395088 18.7121 1.09835 19.2793C1.80161 19.8466 2.75544 20.1653 3.75 20.1653H16.25C17.2446 20.1653 18.1984 19.8466 18.9017 19.2793C19.6049 18.7121 20 17.9427 20 17.1405V10.0826C20 9.28042 19.6049 8.51105 18.9017 7.94379C18.1984 7.37653 17.2446 7.05785 16.25 7.05785ZM6.25 5.04132C6.25 4.2391 6.64509 3.46973 7.34835 2.90247C8.05161 2.33521 9.00544 2.01653 10 2.01653C10.9946 2.01653 11.9484 2.33521 12.6517 2.90247C13.3549 3.46973 13.75 4.2391 13.75 5.04132V7.05785H6.25V5.04132ZM17.5 17.1405C17.5 17.4079 17.3683 17.6644 17.1339 17.8534C16.8995 18.0425 16.5815 18.1488 16.25 18.1488H3.75C3.41848 18.1488 3.10054 18.0425 2.86612 17.8534C2.6317 17.6644 2.5 17.4079 2.5 17.1405V10.0826C2.5 9.81524 2.6317 9.55878 2.86612 9.36969C3.10054 9.18061 3.41848 9.07438 3.75 9.07438H16.25C16.5815 9.07438 16.8995 9.18061 17.1339 9.36969C17.3683 9.55878 17.5 9.81524 17.5 10.0826V17.1405Z" stroke="white"/>
</svg>
