<svg width="20" height="17" viewBox="0 0 20 17" fill="none" xmlns="http://www.w3.org/2000/svg">
<path d="M10 7.16988C11.1302 7.16988 12.235 6.95963 13.1747 6.56571C14.1144 6.17179 14.8468 5.6119 15.2793 4.95684C15.7118 4.30178 15.825 3.58096 15.6045 2.88555C15.384 2.19014 14.8398 1.55137 14.0406 1.05001C13.2415 0.548643 12.2233 0.207211 11.1148 0.0688852C10.0063 -0.0694405 8.85739 0.0015533 7.81324 0.272889C6.76909 0.544225 5.87664 1.00371 5.24875 1.59326C4.62085 2.1828 4.28571 2.87591 4.28571 3.58494C4.28571 4.53573 4.88775 5.44757 5.95939 6.11988C7.03103 6.79218 8.48448 7.16988 10 7.16988ZM10 1.79247C10.5651 1.79247 11.1175 1.8976 11.5873 2.09456C12.0572 2.29152 12.4234 2.57146 12.6397 2.89899C12.8559 3.22652 12.9125 3.58693 12.8022 3.93463C12.692 4.28234 12.4199 4.60173 12.0203 4.85241C11.6207 5.10309 11.1116 5.27381 10.5574 5.34297C10.0032 5.41213 9.42869 5.37664 8.90662 5.24097C8.38454 5.1053 7.93832 4.87555 7.62437 4.58078C7.31043 4.28601 7.14286 3.93946 7.14286 3.58494C7.14286 3.10955 7.44388 2.65363 7.9797 2.31747C8.51551 1.98132 9.24224 1.79247 10 1.79247ZM10 8.96235C7.34784 8.96235 4.8043 9.62332 2.92893 10.7999C1.05357 11.9764 0 13.5721 0 15.236C0 15.4737 0.15051 15.7017 0.418419 15.8697C0.686328 16.0378 1.04969 16.1322 1.42857 16.1322C1.80745 16.1322 2.17081 16.0378 2.43872 15.8697C2.70663 15.7017 2.85714 15.4737 2.85714 15.236C2.85714 14.0475 3.60969 12.9077 4.94924 12.0673C6.28878 11.2269 8.1056 10.7548 10 10.7548C11.8944 10.7548 13.7112 11.2269 15.0508 12.0673C16.3903 12.9077 17.1429 14.0475 17.1429 15.236C17.1429 15.4737 17.2934 15.7017 17.5613 15.8697C17.8292 16.0378 18.1925 16.1322 18.5714 16.1322C18.9503 16.1322 19.3137 16.0378 19.5816 15.8697C19.8495 15.7017 20 15.4737 20 15.236C20 13.5721 18.9464 11.9764 17.0711 10.7999C15.1957 9.62332 12.6522 8.96235 10 8.96235Z" fill="#9EFF00"/>
<path d="M10 7.16988C11.1302 7.16988 12.235 6.95963 13.1747 6.56571C14.1144 6.17179 14.8468 5.6119 15.2793 4.95684C15.7118 4.30178 15.825 3.58096 15.6045 2.88555C15.384 2.19014 14.8398 1.55137 14.0406 1.05001C13.2415 0.548643 12.2233 0.207211 11.1148 0.0688852C10.0063 -0.0694405 8.85739 0.0015533 7.81324 0.272889C6.76909 0.544225 5.87664 1.00371 5.24875 1.59326C4.62085 2.1828 4.28571 2.87591 4.28571 3.58494C4.28571 4.53573 4.88775 5.44757 5.95939 6.11988C7.03103 6.79218 8.48448 7.16988 10 7.16988ZM10 1.79247C10.5651 1.79247 11.1175 1.8976 11.5873 2.09456C12.0572 2.29152 12.4234 2.57146 12.6397 2.89899C12.8559 3.22652 12.9125 3.58693 12.8022 3.93463C12.692 4.28234 12.4199 4.60173 12.0203 4.85241C11.6207 5.10309 11.1116 5.27381 10.5574 5.34297C10.0032 5.41213 9.42869 5.37664 8.90662 5.24097C8.38454 5.1053 7.93832 4.87555 7.62437 4.58078C7.31043 4.28601 7.14286 3.93946 7.14286 3.58494C7.14286 3.10955 7.44388 2.65363 7.9797 2.31747C8.51551 1.98132 9.24224 1.79247 10 1.79247ZM10 8.96235C7.34784 8.96235 4.8043 9.62332 2.92893 10.7999C1.05357 11.9764 0 13.5721 0 15.236C0 15.4737 0.15051 15.7017 0.418419 15.8697C0.686328 16.0378 1.04969 16.1322 1.42857 16.1322C1.80745 16.1322 2.17081 16.0378 2.43872 15.8697C2.70663 15.7017 2.85714 15.4737 2.85714 15.236C2.85714 14.0475 3.60969 12.9077 4.94924 12.0673C6.28878 11.2269 8.1056 10.7548 10 10.7548C11.8944 10.7548 13.7112 11.2269 15.0508 12.0673C16.3903 12.9077 17.1429 14.0475 17.1429 15.236C17.1429 15.4737 17.2934 15.7017 17.5613 15.8697C17.8292 16.0378 18.1925 16.1322 18.5714 16.1322C18.9503 16.1322 19.3137 16.0378 19.5816 15.8697C19.8495 15.7017 20 15.4737 20 15.236C20 13.5721 18.9464 11.9764 17.0711 10.7999C15.1957 9.62332 12.6522 8.96235 10 8.96235Z" stroke="#776F6F"/>
</svg>
