<svg width="13" height="12" viewBox="0 0 13 12" fill="none" xmlns="http://www.w3.org/2000/svg">
<path d="M12.4574 8.26717L11.2966 7.19566C10.9506 6.87882 10.4835 6.70018 9.99615 6.69827C9.50876 6.69635 9.04008 6.87132 8.69115 7.18543C8.50497 7.35828 8.25934 7.46582 7.99654 7.48955C7.73374 7.51329 7.47019 7.45173 7.25124 7.31548C6.38709 6.78311 5.64471 6.09916 5.06631 5.3025C4.9213 5.09814 4.85703 4.85389 4.88432 4.61089C4.91162 4.3679 5.02881 4.14101 5.21616 3.96847C5.55337 3.64607 5.74047 3.21464 5.73741 2.76651C5.73435 2.31839 5.54139 1.88917 5.19981 1.57072L4.03901 0.499207C3.69149 0.179511 3.22085 0 2.73022 0C2.23958 0 1.76895 0.179511 1.42143 0.499207L1.08743 0.807997C-0.653756 2.41526 -0.52343 5.79442 3.0993 9.13656C5.2837 11.1534 7.48235 11.998 9.26522 11.998C9.79004 12.0141 10.3131 11.9337 10.8039 11.7613C11.2947 11.589 11.7434 11.3282 12.1239 10.9942L12.4585 10.6854C12.8054 10.3644 13.0002 9.92949 13 9.47607C12.9998 9.02266 12.8046 8.58786 12.4574 8.26717ZM11.7113 9.99669L11.3768 10.3055C10.005 11.5718 6.97687 11.3405 3.84432 8.44835C0.711759 5.55625 0.460606 2.75912 1.83245 1.49279L2.16433 1.18449C2.31376 1.04705 2.51611 0.96988 2.72705 0.96988C2.938 0.96988 3.14034 1.04705 3.28977 1.18449L4.45057 2.256C4.59728 2.39211 4.68056 2.57576 4.68263 2.76775C4.6847 2.95975 4.6054 3.1449 4.46165 3.28367C4.10511 3.61488 3.88271 4.04913 3.83171 4.51367C3.7807 4.97821 3.90418 5.44482 4.18147 5.83533C4.83867 6.74315 5.68377 7.52209 6.66821 8.12739C7.08999 8.38339 7.59415 8.49805 8.09649 8.45222C8.59883 8.40639 9.06893 8.20284 9.42826 7.87558C9.57831 7.74132 9.77945 7.66676 9.98842 7.66795C10.1974 7.66913 10.3975 7.74596 10.5458 7.88191L11.7066 8.95343C11.7814 9.02149 11.8409 9.10253 11.8816 9.1919C11.9224 9.28126 11.9436 9.37718 11.944 9.47414C11.9445 9.5711 11.9241 9.66719 11.8842 9.75687C11.8443 9.84654 11.7855 9.92805 11.7113 9.99669Z" fill="#9EFF00"/>
</svg>
