<svg width="26" height="23" viewBox="0 0 26 23" fill="none" xmlns="http://www.w3.org/2000/svg">
<mask id="path-1-inside-1_94_83" fill="white">
<path d="M20.4903 13.7061H18.9141V14.3068H20.4903V13.7061Z"/>
</mask>
<path d="M20.4903 13.7061H18.9141V14.3068H20.4903V13.7061Z" fill="#776F6F"/>
<path d="M18.9141 13.7061V12.7061H17.9141V13.7061H18.9141ZM20.4903 13.7061H21.4903V12.7061H20.4903V13.7061ZM20.4903 14.3068V15.3068H21.4903V14.3068H20.4903ZM18.9141 14.3068H17.9141V15.3068H18.9141V14.3068ZM18.9141 14.7061H20.4903V12.7061H18.9141V14.7061ZM19.4903 13.7061V14.3068H21.4903V13.7061H19.4903ZM20.4903 13.3068H18.9141V15.3068H20.4903V13.3068ZM19.9141 14.3068V13.7061H17.9141V14.3068H19.9141Z" fill="#9EFF00" mask="url(#path-1-inside-1_94_83)"/>
<mask id="path-3-inside-2_94_83" fill="white">
<path d="M20.4903 6.61719H18.9141V7.21794H20.4903V6.61719Z"/>
</mask>
<path d="M20.4903 6.61719H18.9141V7.21794H20.4903V6.61719Z" fill="#776F6F"/>
<path d="M18.9141 6.61719V5.61719H17.9141V6.61719H18.9141ZM20.4903 6.61719H21.4903V5.61719H20.4903V6.61719ZM20.4903 7.21794V8.21794H21.4903V7.21794H20.4903ZM18.9141 7.21794H17.9141V8.21794H18.9141V7.21794ZM18.9141 7.61719H20.4903V5.61719H18.9141V7.61719ZM19.4903 6.61719V7.21794H21.4903V6.61719H19.4903ZM20.4903 6.21794H18.9141V8.21794H20.4903V6.21794ZM19.9141 7.21794V6.61719H17.9141V7.21794H19.9141Z" fill="#9EFF00" mask="url(#path-3-inside-2_94_83)"/>
<mask id="path-5-inside-3_94_83" fill="white">
<path d="M14.28 10.8232H13.2969V12.0247H14.28V10.8232Z"/>
</mask>
<path d="M14.28 10.8232H13.2969V12.0247H14.28V10.8232Z" fill="#776F6F"/>
<path d="M13.2969 10.8232V9.82324H12.2969V10.8232H13.2969ZM14.28 10.8232H15.28V9.82324H14.28V10.8232ZM14.28 12.0247V13.0247H15.28V12.0247H14.28ZM13.2969 12.0247H12.2969V13.0247H13.2969V12.0247ZM13.2969 11.8232H14.28V9.82324H13.2969V11.8232ZM13.28 10.8232V12.0247H15.28V10.8232H13.28ZM14.28 11.0247H13.2969V13.0247H14.28V11.0247ZM14.2969 12.0247V10.8232H12.2969V12.0247H14.2969Z" fill="#9EFF00" mask="url(#path-5-inside-3_94_83)"/>
<mask id="path-7-inside-4_94_83" fill="white">
<path d="M20.4903 7.93945H18.9141V8.66035H20.4903V7.93945Z"/>
</mask>
<path d="M20.4903 7.93945H18.9141V8.66035H20.4903V7.93945Z" fill="#776F6F"/>
<path d="M18.9141 7.93945V6.93945H17.9141V7.93945H18.9141ZM20.4903 7.93945H21.4903V6.93945H20.4903V7.93945ZM20.4903 8.66035V9.66035H21.4903V8.66035H20.4903ZM18.9141 8.66035H17.9141V9.66035H18.9141V8.66035ZM18.9141 8.93945H20.4903V6.93945H18.9141V8.93945ZM19.4903 7.93945V8.66035H21.4903V7.93945H19.4903ZM20.4903 7.66035H18.9141V9.66035H20.4903V7.66035ZM19.9141 8.66035V7.93945H17.9141V8.66035H19.9141Z" fill="#9EFF00" mask="url(#path-7-inside-4_94_83)"/>
<mask id="path-9-inside-5_94_83" fill="white">
<path d="M20.4903 12.2646H18.9141V12.9855H20.4903V12.2646Z"/>
</mask>
<path d="M20.4903 12.2646H18.9141V12.9855H20.4903V12.2646Z" fill="#776F6F"/>
<path d="M18.9141 12.2646V11.2646H17.9141V12.2646H18.9141ZM20.4903 12.2646H21.4903V11.2646H20.4903V12.2646ZM20.4903 12.9855V13.9855H21.4903V12.9855H20.4903ZM18.9141 12.9855H17.9141V13.9855H18.9141V12.9855ZM18.9141 13.2646H20.4903V11.2646H18.9141V13.2646ZM19.4903 12.2646V12.9855H21.4903V12.2646H19.4903ZM20.4903 11.9855H18.9141V13.9855H20.4903V11.9855ZM19.9141 12.9855V12.2646H17.9141V12.9855H19.9141Z" fill="#9EFF00" mask="url(#path-9-inside-5_94_83)"/>
<path d="M9.85156 8.64036V6.99707H11.0169V8.64036H9.85156Z" fill="#776F6F" stroke="#9EFF00"/>
<mask id="path-12-inside-6_94_83" fill="white">
<path d="M20.4903 9.38086H18.9141V10.1018H20.4903V9.38086Z"/>
</mask>
<path d="M20.4903 9.38086H18.9141V10.1018H20.4903V9.38086Z" fill="#776F6F"/>
<path d="M18.9141 9.38086V8.38086H17.9141V9.38086H18.9141ZM20.4903 9.38086H21.4903V8.38086H20.4903V9.38086ZM20.4903 10.1018V11.1018H21.4903V10.1018H20.4903ZM18.9141 10.1018H17.9141V11.1018H18.9141V10.1018ZM18.9141 10.3809H20.4903V8.38086H18.9141V10.3809ZM19.4903 9.38086V10.1018H21.4903V9.38086H19.4903ZM20.4903 9.10176H18.9141V11.1018H20.4903V9.10176ZM19.9141 10.1018V9.38086H17.9141V10.1018H19.9141Z" fill="#9EFF00" mask="url(#path-12-inside-6_94_83)"/>
<mask id="path-14-inside-7_94_83" fill="white">
<path d="M20.4903 10.8232H18.9141V11.5441H20.4903V10.8232Z"/>
</mask>
<path d="M20.4903 10.8232H18.9141V11.5441H20.4903V10.8232Z" fill="#776F6F"/>
<path d="M18.9141 10.8232V9.82324H17.9141V10.8232H18.9141ZM20.4903 10.8232H21.4903V9.82324H20.4903V10.8232ZM20.4903 11.5441V12.5441H21.4903V11.5441H20.4903ZM18.9141 11.5441H17.9141V12.5441H18.9141V11.5441ZM18.9141 11.8232H20.4903V9.82324H18.9141V11.8232ZM19.4903 10.8232V11.5441H21.4903V10.8232H19.4903ZM20.4903 10.5441H18.9141V12.5441H20.4903V10.5441ZM19.9141 11.5441V10.8232H17.9141V11.5441H19.9141Z" fill="#9EFF00" mask="url(#path-14-inside-7_94_83)"/>
<mask id="path-16-inside-8_94_83" fill="white">
<path d="M7.09187 10.8232H5.51562V11.5441H7.09187V10.8232Z"/>
</mask>
<path d="M7.09187 10.8232H5.51562V11.5441H7.09187V10.8232Z" fill="#776F6F"/>
<path d="M5.51562 10.8232V9.82324H4.51562V10.8232H5.51562ZM7.09187 10.8232H8.09187V9.82324H7.09187V10.8232ZM7.09187 11.5441V12.5441H8.09187V11.5441H7.09187ZM5.51562 11.5441H4.51562V12.5441H5.51562V11.5441ZM5.51562 11.8232H7.09187V9.82324H5.51562V11.8232ZM6.09187 10.8232V11.5441H8.09187V10.8232H6.09187ZM7.09187 10.5441H5.51562V12.5441H7.09187V10.5441ZM6.51562 11.5441V10.8232H4.51562V11.5441H6.51562Z" fill="#9EFF00" mask="url(#path-16-inside-8_94_83)"/>
<mask id="path-18-inside-9_94_83" fill="white">
<path d="M7.09187 12.2646H5.51562V12.9855H7.09187V12.2646Z"/>
</mask>
<path d="M7.09187 12.2646H5.51562V12.9855H7.09187V12.2646Z" fill="#776F6F"/>
<path d="M5.51562 12.2646V11.2646H4.51562V12.2646H5.51562ZM7.09187 12.2646H8.09187V11.2646H7.09187V12.2646ZM7.09187 12.9855V13.9855H8.09187V12.9855H7.09187ZM5.51562 12.9855H4.51562V13.9855H5.51562V12.9855ZM5.51562 13.2646H7.09187V11.2646H5.51562V13.2646ZM6.09187 12.2646V12.9855H8.09187V12.2646H6.09187ZM7.09187 11.9855H5.51562V13.9855H7.09187V11.9855ZM6.51562 12.9855V12.2646H4.51562V12.9855H6.51562Z" fill="#9EFF00" mask="url(#path-18-inside-9_94_83)"/>
<mask id="path-20-inside-10_94_83" fill="white">
<path d="M7.09187 6.61719H5.51562V7.21794H7.09187V6.61719Z"/>
</mask>
<path d="M7.09187 6.61719H5.51562V7.21794H7.09187V6.61719Z" fill="#776F6F"/>
<path d="M5.51562 6.61719V5.61719H4.51562V6.61719H5.51562ZM7.09187 6.61719H8.09187V5.61719H7.09187V6.61719ZM7.09187 7.21794V8.21794H8.09187V7.21794H7.09187ZM5.51562 7.21794H4.51562V8.21794H5.51562V7.21794ZM5.51562 7.61719H7.09187V5.61719H5.51562V7.61719ZM6.09187 6.61719V7.21794H8.09187V6.61719H6.09187ZM7.09187 6.21794H5.51562V8.21794H7.09187V6.21794ZM6.51562 7.21794V6.61719H4.51562V7.21794H6.51562Z" fill="#9EFF00" mask="url(#path-20-inside-10_94_83)"/>
<mask id="path-22-inside-11_94_83" fill="white">
<path d="M7.09187 13.7061H5.51562V14.3068H7.09187V13.7061Z"/>
</mask>
<path d="M7.09187 13.7061H5.51562V14.3068H7.09187V13.7061Z" fill="#776F6F"/>
<path d="M5.51562 13.7061V12.7061H4.51562V13.7061H5.51562ZM7.09187 13.7061H8.09187V12.7061H7.09187V13.7061ZM7.09187 14.3068V15.3068H8.09187V14.3068H7.09187ZM5.51562 14.3068H4.51562V15.3068H5.51562V14.3068ZM5.51562 14.7061H7.09187V12.7061H5.51562V14.7061ZM6.09187 13.7061V14.3068H8.09187V13.7061H6.09187ZM7.09187 13.3068H5.51562V15.3068H7.09187V13.3068ZM6.51562 14.3068V13.7061H4.51562V14.3068H6.51562Z" fill="#9EFF00" mask="url(#path-22-inside-11_94_83)"/>
<mask id="path-24-inside-12_94_83" fill="white">
<path d="M7.09187 7.93945H5.51562V8.66035H7.09187V7.93945Z"/>
</mask>
<path d="M7.09187 7.93945H5.51562V8.66035H7.09187V7.93945Z" fill="#776F6F"/>
<path d="M5.51562 7.93945V6.93945H4.51562V7.93945H5.51562ZM7.09187 7.93945H8.09187V6.93945H7.09187V7.93945ZM7.09187 8.66035V9.66035H8.09187V8.66035H7.09187ZM5.51562 8.66035H4.51562V9.66035H5.51562V8.66035ZM5.51562 8.93945H7.09187V6.93945H5.51562V8.93945ZM6.09187 7.93945V8.66035H8.09187V7.93945H6.09187ZM7.09187 7.66035H5.51562V9.66035H7.09187V7.66035ZM6.51562 8.66035V7.93945H4.51562V8.66035H6.51562Z" fill="#9EFF00" mask="url(#path-24-inside-12_94_83)"/>
<path d="M11.8234 10.3619V10.3619H9.065H9.05706L9.05707 10.3618C8.93909 10.3599 8.82549 10.3305 8.72353 10.2786L8.72352 10.2786C8.62196 10.2269 8.5359 10.1551 8.4675 10.072C8.43531 10.0329 8.40709 9.99135 8.38281 9.94814V13.8074H17.6284V6.13724V5.65523L11.8324 0.664025L8.38281 3.72361V5.69053C8.40709 5.64732 8.43531 5.6058 8.4675 5.56667C8.53589 5.48354 8.62196 5.41174 8.72352 5.36006L8.72353 5.36006C8.82549 5.30818 8.93909 5.27873 9.05706 5.27686L9.065 5.27673V5.27679H11.8234H11.8314L11.8314 5.27686C11.9493 5.27873 12.0629 5.30818 12.1649 5.36006L11.9472 5.78792L12.1649 5.36006C12.2665 5.41174 12.3525 5.48354 12.4209 5.56667L11.8234 10.3619ZM11.8234 10.3619L11.8314 10.3618C11.9493 10.3599 12.0629 10.3305 12.1649 10.2786L12.1649 10.2786M11.8234 10.3619L12.1649 10.2786M12.1649 10.2786C12.1895 10.2661 12.2131 10.2525 12.2358 10.2378M12.1649 10.2786L12.2358 10.2378M14.5819 13.2455V13.2455H13.0056H12.9977L12.9977 13.2454C12.8797 13.2435 12.7661 13.2141 12.6641 13.1622C12.5626 13.1105 12.4765 13.0387 12.4081 12.9556L14.5819 13.2455ZM14.5819 13.2455L14.5898 13.2454M14.5819 13.2455L14.5898 13.2454M14.5898 13.2454C14.7078 13.2435 14.8214 13.2141 14.9234 13.1622C15.0249 13.1105 15.111 13.0387 15.1794 12.9556L14.5898 13.2454ZM12.5933 9.72631C12.6117 9.65172 12.6206 9.57526 12.62 9.49909V9.50143L12.5933 9.72631ZM12.5933 9.72631C12.616 9.7116 12.6396 9.69793 12.6641 9.68545L12.5933 9.72631ZM12.2358 10.2378C12.2173 10.3123 12.2085 10.3888 12.2091 10.465V10.4626L12.2358 10.2378ZM13.0056 9.60211V9.60218H14.5819H14.5898L14.5898 9.60224C14.7078 9.60411 14.8214 9.63357 14.9233 9.68544L13.0056 9.60211ZM13.0056 9.60211L12.9977 9.60224M13.0056 9.60211L12.9977 9.60224M12.9977 9.60224C12.8797 9.60411 12.7661 9.63356 12.6642 9.68544L12.9977 9.60224ZM8.38281 6.13724H8.26844V6.13956C8.26845 6.1407 8.26846 6.14185 8.26847 6.14299L8.38281 6.14168V6.13724ZM8.38281 6.13724H8.76844H8.38281ZM14.7933 10.2097L15.1794 9.89206C15.2477 9.97506 15.2981 10.0689 15.331 10.1666C15.3635 10.2632 15.3792 10.3643 15.3784 10.465M14.7933 10.2097L14.8784 10.4626M14.7933 10.2097L15.1794 9.89205M14.7933 10.2097L15.1794 9.89205M15.3784 10.465C15.3784 10.4661 15.3784 10.4672 15.3784 10.4684L14.8784 10.4626M15.3784 10.465V10.4626H14.8784M15.3784 10.465V12.3827M14.8784 10.4626V12.385M15.3784 12.3827C15.3784 12.3815 15.3784 12.3804 15.3784 12.3793L14.8784 12.385M15.3784 12.3827V12.385H14.8784M15.3784 12.3827C15.3792 12.4833 15.3635 12.5844 15.331 12.6811C15.2981 12.7788 15.2477 12.8726 15.1794 12.9556L14.8784 12.385M15.1794 9.89205C15.111 9.80893 15.0249 9.73713 14.9234 9.68545L15.1794 9.89205ZM12.62 6.13959C12.6208 6.03896 12.6051 5.93782 12.5725 5.84119C12.5396 5.74349 12.4892 5.64967 12.4209 5.56667L12.62 6.13959Z" stroke="#9EFF00"/>
<mask id="path-27-inside-13_94_83" fill="white">
<path d="M7.09187 9.38086H5.51562V10.1018H7.09187V9.38086Z"/>
</mask>
<path d="M7.09187 9.38086H5.51562V10.1018H7.09187V9.38086Z" fill="#776F6F"/>
<path d="M5.51562 9.38086V8.38086H4.51562V9.38086H5.51562ZM7.09187 9.38086H8.09187V8.38086H7.09187V9.38086ZM7.09187 10.1018V11.1018H8.09187V10.1018H7.09187ZM5.51562 10.1018H4.51562V11.1018H5.51562V10.1018ZM5.51562 10.3809H7.09187V8.38086H5.51562V10.3809ZM6.09187 9.38086V10.1018H8.09187V9.38086H6.09187ZM7.09187 9.10176H5.51562V11.1018H7.09187V9.10176ZM6.51562 10.1018V9.38086H4.51562V10.1018H6.51562Z" fill="#9EFF00" mask="url(#path-27-inside-13_94_83)"/>
<path d="M23.1356 21.9969V22.4581H12.3178V21.9969V15.7686H23.1356V17.6521H15.3644C15.0943 17.6521 14.8562 17.7797 14.6953 17.9701C14.5365 18.158 14.4581 18.3973 14.4581 18.6327C14.4581 18.8682 14.5365 19.1075 14.6953 19.2954C14.8562 19.4858 15.0943 19.6133 15.3644 19.6133H23.1356V21.9969ZM2.86438 22.4581V21.9969V15.7686H5.41094V21.9969V22.4581H2.86438ZM7.195 22.4581V21.9969V15.7686H10.5297V21.9969V22.4581H7.195Z" stroke="#9EFF00"/>
</svg>
