<svg width="13" height="19" viewBox="0 0 13 19" fill="none" xmlns="http://www.w3.org/2000/svg">
<path d="M12.0077 4.03306H9.79774C9.60514 3.29883 9.26475 2.61242 8.79774 2.01653H12.0077C12.273 2.01653 12.5273 1.9103 12.7148 1.72121C12.9024 1.53213 13.0077 1.27567 13.0077 1.00826C13.0077 0.740856 12.9024 0.4844 12.7148 0.295314C12.5273 0.106228 12.273 0 12.0077 0H1.00774C0.742522 0 0.488168 0.106228 0.300632 0.295314C0.113095 0.4844 0.00773837 0.740856 0.00773837 1.00826C0.00773837 1.27567 0.113095 1.53213 0.300632 1.72121C0.488168 1.9103 0.742522 2.01653 1.00774 2.01653H4.50774C5.16798 2.01887 5.81409 2.20945 6.37148 2.56627C6.92886 2.92309 7.37478 3.43159 7.65774 4.03306H1.00774C0.742522 4.03306 0.488168 4.13929 0.300632 4.32837C0.113095 4.51746 0.00773837 4.77391 0.00773837 5.04132C0.00773837 5.30873 0.113095 5.56519 0.300632 5.75427C0.488168 5.94336 0.742522 6.04959 1.00774 6.04959H8.00774C7.88786 6.88705 7.47353 7.65321 6.84026 8.20843C6.20699 8.76365 5.39694 9.07097 4.55774 9.07438H1.00774C0.961189 9.06966 0.914288 9.06966 0.867738 9.07438C0.801471 9.06398 0.734006 9.06398 0.667738 9.07438C0.599575 9.09779 0.535466 9.13181 0.477738 9.17521L0.357738 9.24578C0.302961 9.29566 0.255786 9.35342 0.217738 9.41719C0.184246 9.46188 0.15416 9.50907 0.127738 9.55835C0.118837 9.61851 0.118837 9.67967 0.127738 9.73983C0.0564767 9.84041 0.0148761 9.95925 0.00773837 10.0826C0.00305998 10.1296 0.00305998 10.1769 0.00773837 10.2238C-0.00257946 10.2906 -0.00257946 10.3586 0.00773837 10.4255C0.0309533 10.4942 0.064695 10.5588 0.107738 10.617C0.107738 10.617 0.107738 10.6977 0.177738 10.738L6.17774 17.7959C6.35013 17.9991 6.59553 18.125 6.85996 18.1458C7.12438 18.1666 7.38617 18.0806 7.58774 17.9068C7.7893 17.733 7.91413 17.4855 7.93476 17.2189C7.95539 16.9523 7.87013 16.6884 7.69774 16.4851L3.18774 11.0909H4.50774C5.8838 11.0967 7.212 10.5821 8.23021 9.64881C9.24842 8.71551 9.88265 7.43128 10.0077 6.04959H12.0077C12.273 6.04959 12.5273 5.94336 12.7148 5.75427C12.9024 5.56519 13.0077 5.30873 13.0077 5.04132C13.0077 4.77391 12.9024 4.51746 12.7148 4.32837C12.5273 4.13929 12.273 4.03306 12.0077 4.03306Z" fill="#9EFF00"/>
</svg>
