<svg width="36" height="28" viewBox="0 0 36 28" fill="none" xmlns="http://www.w3.org/2000/svg">
<ellipse cx="18" cy="14" rx="18" ry="14" fill="#1D1B1B"/>
<path d="M26.9942 7.18833C26.9943 7.02794 26.954 6.87037 26.8774 6.7317C26.8007 6.59302 26.6905 6.47818 26.558 6.39887C26.4254 6.31956 26.2753 6.27862 26.1228 6.28021C25.9703 6.2818 25.8209 6.32587 25.6899 6.40794C25.1845 6.7243 24.6405 6.96658 24.0728 7.12806C23.2621 6.39634 22.2281 5.99594 21.1598 6.00003C19.9879 6.00145 18.8623 6.48186 18.0208 7.33981C17.1793 8.19777 16.6877 9.36612 16.6499 10.5981C14.3395 10.2106 12.2456 8.94226 10.7673 7.03491C10.6783 6.92125 10.5645 6.83178 10.4357 6.77406C10.3068 6.71633 10.1667 6.69204 10.0271 6.70323C9.88751 6.71532 9.75285 6.76298 9.63474 6.84209C9.51663 6.9212 9.41862 7.02938 9.34918 7.15728C8.99307 7.81094 8.78854 8.54372 8.75221 9.29612C8.71588 10.0485 8.84877 10.7993 9.14008 11.4876L9.1384 11.4893C9.00747 11.5742 8.89941 11.6929 8.82457 11.8342C8.74973 11.9755 8.7106 12.1346 8.71093 12.2963C8.70935 12.4298 8.71695 12.5631 8.7337 12.6954C8.82188 13.838 9.30333 14.9076 10.0878 15.7035C10.0345 15.8101 10.0021 15.9268 9.99223 16.0468C9.98238 16.1668 9.99537 16.2876 10.0304 16.4023C10.3724 17.523 11.0997 18.4691 12.07 19.0556C11.0842 19.4565 10.0198 19.5963 8.97061 19.4627C8.77642 19.437 8.57971 19.4816 8.41275 19.589C8.24579 19.6964 8.1185 19.8603 8.05175 20.0538C7.985 20.2473 7.98276 20.459 8.0454 20.654C8.10804 20.849 8.23183 21.0159 8.39648 21.1272C10.201 22.3496 12.3021 22.9996 14.4485 22.9993C16.8825 23.0281 19.2574 22.21 21.2036 20.6722C23.1499 19.1345 24.5584 16.9633 25.2101 14.4965C25.515 13.4219 25.6706 12.3066 25.6722 11.1852C25.6722 11.1258 25.6722 11.0646 25.6713 11.0034C26.1221 10.4921 26.4713 9.89125 26.6985 9.23615C26.9256 8.58104 27.0262 7.88484 26.9942 7.18833ZM24.1394 10.105C23.9968 10.2824 23.9246 10.5108 23.9379 10.7427C23.9463 10.8925 23.9454 11.0432 23.9454 11.1852C23.9437 12.1328 23.8116 13.0752 23.5534 13.9831C23.0211 16.082 21.8346 17.9324 20.1838 19.2378C18.5329 20.5433 16.5134 21.2283 14.4485 21.1831C13.7067 21.1833 12.9676 21.0916 12.2462 20.9099C13.1661 20.5982 14.0261 20.1175 14.7866 19.4902C14.9266 19.3742 15.0291 19.2154 15.08 19.0357C15.1309 18.856 15.1277 18.6642 15.0708 18.4865C15.0139 18.3088 14.9061 18.154 14.7622 18.0433C14.6183 17.9326 14.4454 17.8714 14.2672 17.8682C13.5496 17.8564 12.8643 17.5522 12.3558 17.0195C12.4848 16.9938 12.6129 16.9619 12.7403 16.9237C12.9268 16.8679 13.09 16.7477 13.2036 16.5824C13.3172 16.4172 13.3747 16.2165 13.3667 16.0127C13.3587 15.8089 13.2858 15.6139 13.1596 15.459C13.0334 15.3042 12.8613 15.1985 12.6711 15.159C12.2546 15.0725 11.8626 14.8861 11.5257 14.6143C11.1888 14.3425 10.916 13.9927 10.7285 13.592C10.8846 13.6144 11.0416 13.6283 11.199 13.6337C11.386 13.6366 11.569 13.577 11.7217 13.4633C11.8743 13.3496 11.9886 13.1879 12.048 13.0014C12.105 12.8132 12.1021 12.6106 12.0397 12.4243C11.9773 12.238 11.8589 12.0782 11.7024 11.9691C11.3226 11.703 11.0115 11.342 10.797 10.9184C10.5825 10.4948 10.4712 10.0219 10.4731 9.54193C10.4731 9.48163 10.4748 9.42133 10.4781 9.36191C12.4132 11.2601 14.923 12.379 17.5655 12.5216C17.6989 12.5271 17.8317 12.5007 17.954 12.4443C18.0762 12.388 18.1847 12.3031 18.2712 12.1962C18.3568 12.0882 18.4175 11.9608 18.4483 11.824C18.4792 11.6872 18.4794 11.5447 18.4491 11.4078C18.3997 11.1911 18.3745 10.9691 18.374 10.7462C18.3748 9.96938 18.6686 9.22459 19.1908 8.67528C19.7131 8.12597 20.4212 7.81701 21.1597 7.81619C21.5397 7.81512 21.9158 7.89692 22.2643 8.05642C22.6127 8.21593 22.9259 8.44967 23.1841 8.74291C23.2837 8.85559 23.409 8.9396 23.5482 8.98695C23.6873 9.03429 23.8357 9.04341 23.9792 9.01342C24.3338 8.94082 24.6834 8.84305 25.0255 8.72078C24.7921 9.22293 24.4939 9.68876 24.1394 10.105Z" fill="#9EFF00"/>
</svg>
