<svg width="31" height="27" viewBox="0 0 31 27" fill="none" xmlns="http://www.w3.org/2000/svg">
<path d="M30.5706 18.2043C30.5706 15.732 30.3377 13.3161 30.2445 13.0503C30.1746 12.857 29.7261 12.3497 28.7068 11.3914C27.6759 10.4169 27.6992 10.5619 27.5129 9.9257C27.6818 9.85322 27.8448 9.71631 27.9439 9.70021C28.1652 9.668 28.1768 9.95791 28.637 9.95791C29.0971 9.95791 30.093 9.78879 30.2969 9.50693C30.5007 9.22507 30.5648 9.12844 30.5648 8.87879C30.5648 8.62914 30.46 8.11374 30.2619 7.80772C30.0639 7.5017 29.2194 7.34869 28.7243 7.26011C28.2292 7.17153 28.1594 7.26011 28.0312 7.37285C27.8274 7.55002 27.8157 9.1687 27.8157 9.1687L27.3323 9.18481C27.0178 8.11374 26.581 5.9555 25.8995 4.25629C25.154 2.40408 24.3735 1.82425 24.0474 1.67929C23.727 1.54239 23.4358 1.44575 21.2517 1.13973C19.021 0.817609 17.2445 0.777344 15.6603 0.777344C14.0761 0.777344 12.2997 0.825663 10.0689 1.13973C7.88482 1.45381 7.5936 1.54239 7.27326 1.67929C6.95292 1.8162 6.16664 2.40408 5.42112 4.25629C4.73967 5.9555 4.30285 8.11374 3.98833 9.18481L3.50491 9.1687C3.50491 9.1687 3.49909 7.55002 3.28941 7.37285C3.16128 7.26011 3.09139 7.16347 2.59632 7.26011C2.10125 7.35675 1.25672 7.5017 1.05869 7.80772C0.860663 8.11374 0.755824 8.62914 0.755824 8.87879C0.755824 9.12844 0.819892 9.23313 1.02374 9.50693C1.2276 9.78879 2.22356 9.95791 2.68368 9.95791C3.1438 9.95791 3.15545 9.668 3.37678 9.70021C3.47579 9.71631 3.6447 9.85322 3.80778 9.9257C3.61558 10.5619 3.6447 10.4169 2.61379 11.3914C1.59453 12.3577 1.14023 12.857 1.07616 13.0503C0.982974 13.3161 0.75 15.732 0.75 18.2043C0.75 20.6766 0.878136 22.8993 0.878136 23.6885C0.878136 24.0187 0.878136 24.5985 0.930555 25.1542C0.965501 25.4843 1.01792 25.8065 1.11111 26.0561C1.26837 26.499 1.41398 26.5393 2.01388 26.499C2.7827 26.4507 3.89514 26.499 5.04254 26.5635C5.81135 26.6037 6.59764 26.644 7.29656 26.6681C9.04386 26.7165 8.53132 26.3138 9.27684 26.3299C10.0224 26.346 12.9636 26.5151 15.6545 26.5151C18.3453 26.5151 21.2925 26.346 22.0321 26.3299C22.7777 26.3138 22.2651 26.7165 24.0124 26.6681C24.7113 26.652 25.4976 26.6037 26.2664 26.5635C27.4138 26.5071 28.5321 26.4507 29.2951 26.499C29.895 26.5393 30.0406 26.499 30.1979 26.0561C30.2852 25.8065 30.3435 25.4843 30.3784 25.1542C30.4367 24.5985 30.4308 24.0187 30.4308 23.6885C30.4425 22.9073 30.5706 20.6766 30.5706 18.2043ZM5.77058 6.01188C6.05015 5.10993 6.88886 3.29797 7.29656 2.97585C7.39557 2.89532 8.2634 2.51682 10.4359 2.31549C12.4336 2.13027 14.6411 2.05779 15.6661 2.05779C16.6912 2.05779 18.8987 2.13027 20.8964 2.31549C23.0631 2.51682 23.9425 2.88726 24.0357 2.97585C24.5599 3.47514 25.2821 5.10993 25.5617 6.01188C25.8413 6.91383 26.214 8.68551 26.1441 8.92711C26.0742 9.1687 26.214 9.2895 25.2705 9.18481C24.3328 9.08817 18.4444 8.98348 15.672 8.98348C12.9054 8.98348 7.01699 9.08817 6.07345 9.18481C5.12991 9.28145 5.26969 9.1687 5.1998 8.92711C5.11826 8.68551 5.49101 6.92188 5.77058 6.01188ZM7.91394 16.0944C7.49459 16.2393 7.24414 16.5534 6.71995 16.5454C6.19576 16.5454 4.78045 16.2152 4.47758 16.1991C4.17471 16.183 3.90679 16.4809 3.74954 16.5373C3.59228 16.5937 3.28359 16.4407 2.81764 16.2393C2.35169 16.038 2.07795 16.0944 1.92652 15.2166C1.76926 14.3469 1.92652 13.0986 1.92652 13.0986C2.93413 13.0342 3.90679 13.1631 5.72981 13.8717C7.55283 14.5804 8.56627 15.9414 8.56627 15.9414C8.56627 15.9414 8.33329 15.9494 7.91394 16.0944ZM21.6128 22.4403C20.7799 22.5933 17.2911 22.6335 15.6603 22.6335C14.0295 22.6335 10.5407 22.5852 9.70784 22.4403C8.85748 22.2872 7.75086 20.8779 8.51385 19.7586C9.54476 18.2365 9.35255 18.2848 11.6939 17.8661C13.7208 17.5037 15.2584 17.4876 15.6603 17.4876C16.0564 17.4876 17.5998 17.5117 19.6267 17.8661C21.9681 18.2848 21.7759 18.2365 22.8068 19.7586C23.5698 20.8779 22.4632 22.2872 21.6128 22.4403ZM29.3941 15.2247C29.2369 16.0944 28.9689 16.0461 28.503 16.2474C28.037 16.4487 27.7284 16.5937 27.5711 16.5454C27.4138 16.497 27.1459 16.1991 26.8431 16.2071C26.5402 16.2232 25.1249 16.5534 24.6007 16.5534C24.0765 16.5534 23.826 16.2474 23.4067 16.1024C22.9873 15.9575 22.7544 15.9575 22.7544 15.9575C22.7544 15.9575 23.762 14.5885 25.5908 13.8878C27.4138 13.1792 28.3865 13.0503 29.3941 13.1147C29.3941 13.0986 29.5514 14.3469 29.3941 15.2247Z" fill="black"/>
</svg>
