<svg width="20" height="23" viewBox="0 0 20 23" fill="none" xmlns="http://www.w3.org/2000/svg">
<path d="M10 0C7.34784 0 4.8043 0.96928 2.92893 2.69461C1.05357 4.41994 0 6.75999 0 9.19997C0 15.41 8.8125 22.4249 9.1875 22.7239C9.41392 22.9021 9.70206 23 10 23C10.2979 23 10.5861 22.9021 10.8125 22.7239C11.25 22.4249 20 15.41 20 9.19997C20 6.75999 18.9464 4.41994 17.0711 2.69461C15.1957 0.96928 12.6522 0 10 0ZM10 20.2974C7.3375 17.9974 2.5 13.041 2.5 9.19997C2.5 7.36998 3.29018 5.61495 4.6967 4.32095C6.10322 3.02695 8.01088 2.29999 10 2.29999C11.9891 2.29999 13.8968 3.02695 15.3033 4.32095C16.7098 5.61495 17.5 7.36998 17.5 9.19997C17.5 13.041 12.6625 18.0089 10 20.2974ZM10 4.59999C9.01109 4.59999 8.0444 4.86977 7.22215 5.37522C6.3999 5.88068 5.75904 6.59909 5.3806 7.43963C5.00216 8.28017 4.90315 9.20507 5.09607 10.0974C5.289 10.9897 5.7652 11.8093 6.46447 12.4527C7.16373 13.096 8.05464 13.5341 9.02455 13.7116C9.99445 13.8891 10.9998 13.798 11.9134 13.4498C12.827 13.1016 13.6079 12.512 14.1573 11.7556C14.7068 10.9991 15 10.1098 15 9.19997C15 7.97998 14.4732 6.80995 13.5355 5.94729C12.5979 5.08462 11.3261 4.59999 10 4.59999ZM10 11.5C9.50555 11.5 9.0222 11.3651 8.61107 11.1123C8.19995 10.8596 7.87952 10.5004 7.6903 10.0801C7.50108 9.65987 7.45157 9.19742 7.54804 8.75126C7.6445 8.30511 7.8826 7.89529 8.23223 7.57363C8.58186 7.25197 9.02732 7.03292 9.51227 6.94417C9.99723 6.85543 10.4999 6.90097 10.9567 7.07505C11.4135 7.24914 11.804 7.54393 12.0787 7.92216C12.3534 8.3004 12.5 8.74507 12.5 9.19997C12.5 9.80997 12.2366 10.395 11.7678 10.8263C11.2989 11.2576 10.663 11.5 10 11.5Z" fill="#776F6F"/>
<path fill-rule="evenodd" clip-rule="evenodd" d="M10 20.2974C7.3375 17.9974 2.5 13.041 2.5 9.19997C2.5 7.36998 3.29018 5.61495 4.6967 4.32095C6.10322 3.02695 8.01088 2.29999 10 2.29999C11.9891 2.29999 13.8968 3.02695 15.3033 4.32095C16.7098 5.61495 17.5 7.36998 17.5 9.19997C17.5 13.041 12.6625 18.0089 10 20.2974ZM7.22215 5.37522C8.0444 4.86977 9.01109 4.59999 10 4.59999C11.3261 4.59999 12.5979 5.08462 13.5355 5.94729C14.4732 6.80995 15 7.97998 15 9.19997C15 10.1098 14.7068 10.9991 14.1573 11.7556C13.6079 12.512 12.827 13.1016 11.9134 13.4498C10.9998 13.798 9.99445 13.8891 9.02455 13.7116C8.05464 13.5341 7.16373 13.096 6.46447 12.4527C5.7652 11.8093 5.289 10.9897 5.09607 10.0974C4.90315 9.20507 5.00216 8.28017 5.3806 7.43963C5.75904 6.59909 6.3999 5.88068 7.22215 5.37522Z" fill="#776F6F"/>
</svg>
