<svg width="24" height="25" viewBox="0 0 24 25" fill="none" xmlns="http://www.w3.org/2000/svg">
<mask id="path-1-inside-1_28_48" fill="white">
<path d="M23.184 9.4375L20.916 8.65L21.984 6.425C22.0923 6.19211 22.1285 5.92996 22.0876 5.67472C22.0468 5.41948 21.9309 5.18373 21.756 5L19.2 2.3375C19.0227 2.15261 18.7942 2.03026 18.5467 1.98766C18.2991 1.94506 18.045 1.98435 17.82 2.1L15.684 3.2125L14.928 0.850004C14.8482 0.603744 14.6966 0.389536 14.4944 0.237189C14.2923 0.0848422 14.0495 0.00193459 13.8 4.16692e-06H10.2C9.94843 -0.000672285 9.70301 0.0810278 9.49845 0.233557C9.29388 0.386085 9.1405 0.601728 9.06 0.850004L8.304 3.2125L6.168 2.1C5.94443 1.98723 5.69276 1.94951 5.44773 1.99205C5.2027 2.03459 4.97638 2.15529 4.8 2.3375L2.244 5C2.06651 5.18471 1.94905 5.42272 1.90815 5.68057C1.86726 5.93842 1.90497 6.20314 2.016 6.4375L3.084 8.6625L0.816004 9.45C0.579595 9.53317 0.373955 9.69104 0.227702 9.90163C0.0814485 10.1122 0.00185721 10.3651 4.00024e-06 10.625V14.375C-0.000645394 14.6371 0.0777867 14.8927 0.224214 15.1058C0.370642 15.3189 0.577659 15.4786 0.816004 15.5625L3.084 16.35L2.016 18.575C1.90774 18.8079 1.87153 19.07 1.91237 19.3253C1.9532 19.5805 2.06908 19.8163 2.244 20L4.8 22.6625C4.97732 22.8474 5.20581 22.9697 5.45335 23.0123C5.70088 23.0549 5.95501 23.0156 6.18 22.9L8.316 21.7875L9.072 24.15C9.1525 24.3983 9.30588 24.6139 9.51045 24.7664C9.71501 24.919 9.96043 25.0007 10.212 25H13.812C14.0636 25.0007 14.309 24.919 14.5136 24.7664C14.7181 24.6139 14.8715 24.3983 14.952 24.15L15.708 21.7875L17.844 22.9C18.0661 23.0099 18.3154 23.0461 18.5579 23.0036C18.8004 22.9611 19.0246 22.8421 19.2 22.6625L21.756 20C21.9335 19.8153 22.0509 19.5773 22.0918 19.3194C22.1327 19.0616 22.095 18.7969 21.984 18.5625L20.916 16.3375L23.184 15.55C23.4204 15.4668 23.626 15.309 23.7723 15.0984C23.9186 14.8878 23.9981 14.6349 24 14.375V10.625C24.0006 10.3629 23.9222 10.1073 23.7758 9.89421C23.6294 9.68112 23.4223 9.52136 23.184 9.4375ZM21.6 13.475L20.16 13.975C19.8289 14.0869 19.5251 14.2725 19.2697 14.5189C19.0143 14.7653 18.8134 15.0666 18.681 15.402C18.5485 15.7373 18.4877 16.0987 18.5027 16.461C18.5178 16.8233 18.6083 17.1778 18.768 17.5L19.452 18.925L18.132 20.3L16.8 19.55C16.4923 19.3903 16.1552 19.3013 15.8116 19.2891C15.468 19.2769 15.1258 19.3417 14.8084 19.4792C14.4909 19.6167 14.2055 19.8237 13.9715 20.086C13.7375 20.3484 13.5603 20.6601 13.452 21L12.972 22.5H11.064L10.584 21C10.4766 20.6551 10.2984 20.3386 10.0619 20.0726C9.82533 19.8065 9.53605 19.5973 9.21411 19.4593C8.89216 19.3214 8.54526 19.258 8.19747 19.2737C7.84968 19.2893 7.50932 19.3836 7.2 19.55L5.832 20.2625L4.512 18.8875L5.232 17.5C5.39172 17.1778 5.48223 16.8233 5.49726 16.461C5.51229 16.0987 5.45148 15.7373 5.31905 15.402C5.18662 15.0666 4.98574 14.7653 4.73034 14.5189C4.47494 14.2725 4.17113 14.0869 3.84 13.975L2.4 13.475V11.525L3.84 11.025C4.17113 10.9131 4.47494 10.7275 4.73034 10.4811C4.98574 10.2347 5.18662 9.93338 5.31905 9.59803C5.45148 9.26267 5.51229 8.90131 5.49726 8.53903C5.48223 8.17675 5.39172 7.82221 5.232 7.5L4.548 6.1125L5.868 4.7375L7.2 5.45C7.50932 5.61637 7.84968 5.71065 8.19747 5.72631C8.54526 5.74197 8.89216 5.67862 9.21411 5.54068C9.53605 5.40273 9.82533 5.19347 10.0619 4.92743C10.2984 4.66139 10.4766 4.34493 10.584 4L11.064 2.5H12.936L13.416 4C13.5234 4.34493 13.7016 4.66139 13.9381 4.92743C14.1747 5.19347 14.464 5.40273 14.7859 5.54068C15.1078 5.67862 15.4547 5.74197 15.8025 5.72631C16.1503 5.71065 16.4907 5.61637 16.8 5.45L18.168 4.7375L19.488 6.1125L18.768 7.5C18.6147 7.82056 18.5293 8.17168 18.5176 8.52961C18.5058 8.88754 18.5681 9.24391 18.7001 9.5746C18.8321 9.9053 19.0307 10.2026 19.2826 10.4464C19.5345 10.6901 19.8337 10.8747 20.16 10.9875L21.6 11.4875V13.475ZM12 7.5C11.0506 7.5 10.1226 7.79325 9.33326 8.34265C8.54391 8.89206 7.92868 9.67295 7.56538 10.5866C7.20208 11.5002 7.10702 12.5055 7.29223 13.4754C7.47744 14.4454 7.9346 15.3363 8.60589 16.0355C9.27718 16.7348 10.1325 17.211 11.0636 17.4039C11.9947 17.5968 12.9598 17.4978 13.8369 17.1194C14.714 16.741 15.4636 16.1001 15.9911 15.2778C16.5185 14.4556 16.8 13.4889 16.8 12.5C16.8 11.1739 16.2943 9.90215 15.3941 8.96447C14.4939 8.02678 13.273 7.5 12 7.5ZM12 15C11.5253 15 11.0613 14.8534 10.6666 14.5787C10.272 14.304 9.96434 13.9135 9.78269 13.4567C9.60104 12.9999 9.55351 12.4972 9.64612 12.0123C9.73872 11.5273 9.9673 11.0819 10.3029 10.7322C10.6386 10.3826 11.0662 10.1445 11.5318 10.048C11.9973 9.95157 12.4799 10.0011 12.9184 10.1903C13.357 10.3795 13.7318 10.7 13.9955 11.1111C14.2592 11.5222 14.4 12.0055 14.4 12.5C14.4 13.163 14.1471 13.7989 13.6971 14.2678C13.247 14.7366 12.6365 15 12 15Z"/>
<path fill-rule="evenodd" clip-rule="evenodd" d="M21.6 13.475L20.16 13.975C19.8289 14.0869 19.5251 14.2725 19.2697 14.5189C19.0143 14.7653 18.8134 15.0666 18.681 15.402C18.5485 15.7373 18.4877 16.0987 18.5027 16.461C18.5178 16.8233 18.6083 17.1778 18.768 17.5L19.452 18.925L18.132 20.3L16.8 19.55C16.4923 19.3903 16.1552 19.3013 15.8116 19.2891C15.468 19.2769 15.1258 19.3417 14.8084 19.4792C14.4909 19.6167 14.2055 19.8237 13.9715 20.086C13.7375 20.3484 13.5603 20.6601 13.452 21L12.972 22.5H11.064L10.584 21C10.4766 20.6551 10.2984 20.3386 10.0619 20.0726C9.82533 19.8065 9.53605 19.5973 9.21411 19.4593C8.89216 19.3214 8.54526 19.258 8.19747 19.2737C7.84968 19.2893 7.50932 19.3836 7.2 19.55L5.832 20.2625L4.512 18.8875L5.232 17.5C5.39172 17.1778 5.48223 16.8233 5.49726 16.461C5.51229 16.0987 5.45148 15.7373 5.31905 15.402C5.18662 15.0666 4.98574 14.7653 4.73034 14.5189C4.47494 14.2725 4.17113 14.0869 3.84 13.975L2.4 13.475V11.525L3.84 11.025C4.17113 10.9131 4.47494 10.7275 4.73034 10.4811C4.98574 10.2347 5.18662 9.93338 5.31905 9.59803C5.45148 9.26267 5.51229 8.90131 5.49726 8.53903C5.48223 8.17675 5.39172 7.82221 5.232 7.5L4.548 6.1125L5.868 4.7375L7.2 5.45C7.50932 5.61637 7.84968 5.71065 8.19747 5.72631C8.54526 5.74197 8.89216 5.67862 9.21411 5.54068C9.53605 5.40273 9.82533 5.19347 10.0619 4.92743C10.2984 4.66139 10.4766 4.34493 10.584 4L11.064 2.5H12.936L13.416 4C13.5234 4.34493 13.7016 4.66139 13.9381 4.92743C14.1747 5.19347 14.464 5.40273 14.7859 5.54068C15.1078 5.67862 15.4547 5.74197 15.8025 5.72631C16.1503 5.71065 16.4907 5.61637 16.8 5.45L18.168 4.7375L19.488 6.1125L18.768 7.5C18.6147 7.82056 18.5293 8.17168 18.5176 8.52961C18.5058 8.88754 18.5681 9.24391 18.7001 9.5746C18.8321 9.9053 19.0307 10.2026 19.2826 10.4464C19.5345 10.6901 19.8337 10.8747 20.16 10.9875L21.6 11.4875V13.475ZM9.33326 8.34265C10.1226 7.79325 11.0506 7.5 12 7.5C13.273 7.5 14.4939 8.02678 15.3941 8.96447C16.2943 9.90215 16.8 11.1739 16.8 12.5C16.8 13.4889 16.5185 14.4556 15.9911 15.2778C15.4636 16.1001 14.714 16.741 13.8369 17.1194C12.9598 17.4978 11.9947 17.5968 11.0636 17.4039C10.1325 17.211 9.27718 16.7348 8.60589 16.0355C7.9346 15.3363 7.47744 14.4454 7.29223 13.4754C7.10702 12.5055 7.20208 11.5002 7.56538 10.5866C7.92868 9.67295 8.54391 8.89206 9.33326 8.34265Z"/>
</mask>
<path d="M23.184 9.4375L20.916 8.65L21.984 6.425C22.0923 6.19211 22.1285 5.92996 22.0876 5.67472C22.0468 5.41948 21.9309 5.18373 21.756 5L19.2 2.3375C19.0227 2.15261 18.7942 2.03026 18.5467 1.98766C18.2991 1.94506 18.045 1.98435 17.82 2.1L15.684 3.2125L14.928 0.850004C14.8482 0.603744 14.6966 0.389536 14.4944 0.237189C14.2923 0.0848422 14.0495 0.00193459 13.8 4.16692e-06H10.2C9.94843 -0.000672285 9.70301 0.0810278 9.49845 0.233557C9.29388 0.386085 9.1405 0.601728 9.06 0.850004L8.304 3.2125L6.168 2.1C5.94443 1.98723 5.69276 1.94951 5.44773 1.99205C5.2027 2.03459 4.97638 2.15529 4.8 2.3375L2.244 5C2.06651 5.18471 1.94905 5.42272 1.90815 5.68057C1.86726 5.93842 1.90497 6.20314 2.016 6.4375L3.084 8.6625L0.816004 9.45C0.579595 9.53317 0.373955 9.69104 0.227702 9.90163C0.0814485 10.1122 0.00185721 10.3651 4.00024e-06 10.625V14.375C-0.000645394 14.6371 0.0777867 14.8927 0.224214 15.1058C0.370642 15.3189 0.577659 15.4786 0.816004 15.5625L3.084 16.35L2.016 18.575C1.90774 18.8079 1.87153 19.07 1.91237 19.3253C1.9532 19.5805 2.06908 19.8163 2.244 20L4.8 22.6625C4.97732 22.8474 5.20581 22.9697 5.45335 23.0123C5.70088 23.0549 5.95501 23.0156 6.18 22.9L8.316 21.7875L9.072 24.15C9.1525 24.3983 9.30588 24.6139 9.51045 24.7664C9.71501 24.919 9.96043 25.0007 10.212 25H13.812C14.0636 25.0007 14.309 24.919 14.5136 24.7664C14.7181 24.6139 14.8715 24.3983 14.952 24.15L15.708 21.7875L17.844 22.9C18.0661 23.0099 18.3154 23.0461 18.5579 23.0036C18.8004 22.9611 19.0246 22.8421 19.2 22.6625L21.756 20C21.9335 19.8153 22.0509 19.5773 22.0918 19.3194C22.1327 19.0616 22.095 18.7969 21.984 18.5625L20.916 16.3375L23.184 15.55C23.4204 15.4668 23.626 15.309 23.7723 15.0984C23.9186 14.8878 23.9981 14.6349 24 14.375V10.625C24.0006 10.3629 23.9222 10.1073 23.7758 9.89421C23.6294 9.68112 23.4223 9.52136 23.184 9.4375ZM21.6 13.475L20.16 13.975C19.8289 14.0869 19.5251 14.2725 19.2697 14.5189C19.0143 14.7653 18.8134 15.0666 18.681 15.402C18.5485 15.7373 18.4877 16.0987 18.5027 16.461C18.5178 16.8233 18.6083 17.1778 18.768 17.5L19.452 18.925L18.132 20.3L16.8 19.55C16.4923 19.3903 16.1552 19.3013 15.8116 19.2891C15.468 19.2769 15.1258 19.3417 14.8084 19.4792C14.4909 19.6167 14.2055 19.8237 13.9715 20.086C13.7375 20.3484 13.5603 20.6601 13.452 21L12.972 22.5H11.064L10.584 21C10.4766 20.6551 10.2984 20.3386 10.0619 20.0726C9.82533 19.8065 9.53605 19.5973 9.21411 19.4593C8.89216 19.3214 8.54526 19.258 8.19747 19.2737C7.84968 19.2893 7.50932 19.3836 7.2 19.55L5.832 20.2625L4.512 18.8875L5.232 17.5C5.39172 17.1778 5.48223 16.8233 5.49726 16.461C5.51229 16.0987 5.45148 15.7373 5.31905 15.402C5.18662 15.0666 4.98574 14.7653 4.73034 14.5189C4.47494 14.2725 4.17113 14.0869 3.84 13.975L2.4 13.475V11.525L3.84 11.025C4.17113 10.9131 4.47494 10.7275 4.73034 10.4811C4.98574 10.2347 5.18662 9.93338 5.31905 9.59803C5.45148 9.26267 5.51229 8.90131 5.49726 8.53903C5.48223 8.17675 5.39172 7.82221 5.232 7.5L4.548 6.1125L5.868 4.7375L7.2 5.45C7.50932 5.61637 7.84968 5.71065 8.19747 5.72631C8.54526 5.74197 8.89216 5.67862 9.21411 5.54068C9.53605 5.40273 9.82533 5.19347 10.0619 4.92743C10.2984 4.66139 10.4766 4.34493 10.584 4L11.064 2.5H12.936L13.416 4C13.5234 4.34493 13.7016 4.66139 13.9381 4.92743C14.1747 5.19347 14.464 5.40273 14.7859 5.54068C15.1078 5.67862 15.4547 5.74197 15.8025 5.72631C16.1503 5.71065 16.4907 5.61637 16.8 5.45L18.168 4.7375L19.488 6.1125L18.768 7.5C18.6147 7.82056 18.5293 8.17168 18.5176 8.52961C18.5058 8.88754 18.5681 9.24391 18.7001 9.5746C18.8321 9.9053 19.0307 10.2026 19.2826 10.4464C19.5345 10.6901 19.8337 10.8747 20.16 10.9875L21.6 11.4875V13.475ZM12 7.5C11.0506 7.5 10.1226 7.79325 9.33326 8.34265C8.54391 8.89206 7.92868 9.67295 7.56538 10.5866C7.20208 11.5002 7.10702 12.5055 7.29223 13.4754C7.47744 14.4454 7.9346 15.3363 8.60589 16.0355C9.27718 16.7348 10.1325 17.211 11.0636 17.4039C11.9947 17.5968 12.9598 17.4978 13.8369 17.1194C14.714 16.741 15.4636 16.1001 15.9911 15.2778C16.5185 14.4556 16.8 13.4889 16.8 12.5C16.8 11.1739 16.2943 9.90215 15.3941 8.96447C14.4939 8.02678 13.273 7.5 12 7.5ZM12 15C11.5253 15 11.0613 14.8534 10.6666 14.5787C10.272 14.304 9.96434 13.9135 9.78269 13.4567C9.60104 12.9999 9.55351 12.4972 9.64612 12.0123C9.73872 11.5273 9.9673 11.0819 10.3029 10.7322C10.6386 10.3826 11.0662 10.1445 11.5318 10.048C11.9973 9.95157 12.4799 10.0011 12.9184 10.1903C13.357 10.3795 13.7318 10.7 13.9955 11.1111C14.2592 11.5222 14.4 12.0055 14.4 12.5C14.4 13.163 14.1471 13.7989 13.6971 14.2678C13.247 14.7366 12.6365 15 12 15Z" fill="#776F6F"/>
<path fill-rule="evenodd" clip-rule="evenodd" d="M21.6 13.475L20.16 13.975C19.8289 14.0869 19.5251 14.2725 19.2697 14.5189C19.0143 14.7653 18.8134 15.0666 18.681 15.402C18.5485 15.7373 18.4877 16.0987 18.5027 16.461C18.5178 16.8233 18.6083 17.1778 18.768 17.5L19.452 18.925L18.132 20.3L16.8 19.55C16.4923 19.3903 16.1552 19.3013 15.8116 19.2891C15.468 19.2769 15.1258 19.3417 14.8084 19.4792C14.4909 19.6167 14.2055 19.8237 13.9715 20.086C13.7375 20.3484 13.5603 20.6601 13.452 21L12.972 22.5H11.064L10.584 21C10.4766 20.6551 10.2984 20.3386 10.0619 20.0726C9.82533 19.8065 9.53605 19.5973 9.21411 19.4593C8.89216 19.3214 8.54526 19.258 8.19747 19.2737C7.84968 19.2893 7.50932 19.3836 7.2 19.55L5.832 20.2625L4.512 18.8875L5.232 17.5C5.39172 17.1778 5.48223 16.8233 5.49726 16.461C5.51229 16.0987 5.45148 15.7373 5.31905 15.402C5.18662 15.0666 4.98574 14.7653 4.73034 14.5189C4.47494 14.2725 4.17113 14.0869 3.84 13.975L2.4 13.475V11.525L3.84 11.025C4.17113 10.9131 4.47494 10.7275 4.73034 10.4811C4.98574 10.2347 5.18662 9.93338 5.31905 9.59803C5.45148 9.26267 5.51229 8.90131 5.49726 8.53903C5.48223 8.17675 5.39172 7.82221 5.232 7.5L4.548 6.1125L5.868 4.7375L7.2 5.45C7.50932 5.61637 7.84968 5.71065 8.19747 5.72631C8.54526 5.74197 8.89216 5.67862 9.21411 5.54068C9.53605 5.40273 9.82533 5.19347 10.0619 4.92743C10.2984 4.66139 10.4766 4.34493 10.584 4L11.064 2.5H12.936L13.416 4C13.5234 4.34493 13.7016 4.66139 13.9381 4.92743C14.1747 5.19347 14.464 5.40273 14.7859 5.54068C15.1078 5.67862 15.4547 5.74197 15.8025 5.72631C16.1503 5.71065 16.4907 5.61637 16.8 5.45L18.168 4.7375L19.488 6.1125L18.768 7.5C18.6147 7.82056 18.5293 8.17168 18.5176 8.52961C18.5058 8.88754 18.5681 9.24391 18.7001 9.5746C18.8321 9.9053 19.0307 10.2026 19.2826 10.4464C19.5345 10.6901 19.8337 10.8747 20.16 10.9875L21.6 11.4875V13.475ZM9.33326 8.34265C10.1226 7.79325 11.0506 7.5 12 7.5C13.273 7.5 14.4939 8.02678 15.3941 8.96447C16.2943 9.90215 16.8 11.1739 16.8 12.5C16.8 13.4889 16.5185 14.4556 15.9911 15.2778C15.4636 16.1001 14.714 16.741 13.8369 17.1194C12.9598 17.4978 11.9947 17.5968 11.0636 17.4039C10.1325 17.211 9.27718 16.7348 8.60589 16.0355C7.9346 15.3363 7.47744 14.4454 7.29223 13.4754C7.10702 12.5055 7.20208 11.5002 7.56538 10.5866C7.92868 9.67295 8.54391 8.89206 9.33326 8.34265Z" fill="#776F6F"/>
<path d="M23.184 9.4375L20.916 8.65L21.984 6.425C22.0923 6.19211 22.1285 5.92996 22.0876 5.67472C22.0468 5.41948 21.9309 5.18373 21.756 5L19.2 2.3375C19.0227 2.15261 18.7942 2.03026 18.5467 1.98766C18.2991 1.94506 18.045 1.98435 17.82 2.1L15.684 3.2125L14.928 0.850004C14.8482 0.603744 14.6966 0.389536 14.4944 0.237189C14.2923 0.0848422 14.0495 0.00193459 13.8 4.16692e-06H10.2C9.94843 -0.000672285 9.70301 0.0810278 9.49845 0.233557C9.29388 0.386085 9.1405 0.601728 9.06 0.850004L8.304 3.2125L6.168 2.1C5.94443 1.98723 5.69276 1.94951 5.44773 1.99205C5.2027 2.03459 4.97638 2.15529 4.8 2.3375L2.244 5C2.06651 5.18471 1.94905 5.42272 1.90815 5.68057C1.86726 5.93842 1.90497 6.20314 2.016 6.4375L3.084 8.6625L0.816004 9.45C0.579595 9.53317 0.373955 9.69104 0.227702 9.90163C0.0814485 10.1122 0.00185721 10.3651 4.00024e-06 10.625V14.375C-0.000645394 14.6371 0.0777867 14.8927 0.224214 15.1058C0.370642 15.3189 0.577659 15.4786 0.816004 15.5625L3.084 16.35L2.016 18.575C1.90774 18.8079 1.87153 19.07 1.91237 19.3253C1.9532 19.5805 2.06908 19.8163 2.244 20L4.8 22.6625C4.97732 22.8474 5.20581 22.9697 5.45335 23.0123C5.70088 23.0549 5.95501 23.0156 6.18 22.9L8.316 21.7875L9.072 24.15C9.1525 24.3983 9.30588 24.6139 9.51045 24.7664C9.71501 24.919 9.96043 25.0007 10.212 25H13.812C14.0636 25.0007 14.309 24.919 14.5136 24.7664C14.7181 24.6139 14.8715 24.3983 14.952 24.15L15.708 21.7875L17.844 22.9C18.0661 23.0099 18.3154 23.0461 18.5579 23.0036C18.8004 22.9611 19.0246 22.8421 19.2 22.6625L21.756 20C21.9335 19.8153 22.0509 19.5773 22.0918 19.3194C22.1327 19.0616 22.095 18.7969 21.984 18.5625L20.916 16.3375L23.184 15.55C23.4204 15.4668 23.626 15.309 23.7723 15.0984C23.9186 14.8878 23.9981 14.6349 24 14.375V10.625C24.0006 10.3629 23.9222 10.1073 23.7758 9.89421C23.6294 9.68112 23.4223 9.52136 23.184 9.4375ZM21.6 13.475L20.16 13.975C19.8289 14.0869 19.5251 14.2725 19.2697 14.5189C19.0143 14.7653 18.8134 15.0666 18.681 15.402C18.5485 15.7373 18.4877 16.0987 18.5027 16.461C18.5178 16.8233 18.6083 17.1778 18.768 17.5L19.452 18.925L18.132 20.3L16.8 19.55C16.4923 19.3903 16.1552 19.3013 15.8116 19.2891C15.468 19.2769 15.1258 19.3417 14.8084 19.4792C14.4909 19.6167 14.2055 19.8237 13.9715 20.086C13.7375 20.3484 13.5603 20.6601 13.452 21L12.972 22.5H11.064L10.584 21C10.4766 20.6551 10.2984 20.3386 10.0619 20.0726C9.82533 19.8065 9.53605 19.5973 9.21411 19.4593C8.89216 19.3214 8.54526 19.258 8.19747 19.2737C7.84968 19.2893 7.50932 19.3836 7.2 19.55L5.832 20.2625L4.512 18.8875L5.232 17.5C5.39172 17.1778 5.48223 16.8233 5.49726 16.461C5.51229 16.0987 5.45148 15.7373 5.31905 15.402C5.18662 15.0666 4.98574 14.7653 4.73034 14.5189C4.47494 14.2725 4.17113 14.0869 3.84 13.975L2.4 13.475V11.525L3.84 11.025C4.17113 10.9131 4.47494 10.7275 4.73034 10.4811C4.98574 10.2347 5.18662 9.93338 5.31905 9.59803C5.45148 9.26267 5.51229 8.90131 5.49726 8.53903C5.48223 8.17675 5.39172 7.82221 5.232 7.5L4.548 6.1125L5.868 4.7375L7.2 5.45C7.50932 5.61637 7.84968 5.71065 8.19747 5.72631C8.54526 5.74197 8.89216 5.67862 9.21411 5.54068C9.53605 5.40273 9.82533 5.19347 10.0619 4.92743C10.2984 4.66139 10.4766 4.34493 10.584 4L11.064 2.5H12.936L13.416 4C13.5234 4.34493 13.7016 4.66139 13.9381 4.92743C14.1747 5.19347 14.464 5.40273 14.7859 5.54068C15.1078 5.67862 15.4547 5.74197 15.8025 5.72631C16.1503 5.71065 16.4907 5.61637 16.8 5.45L18.168 4.7375L19.488 6.1125L18.768 7.5C18.6147 7.82056 18.5293 8.17168 18.5176 8.52961C18.5058 8.88754 18.5681 9.24391 18.7001 9.5746C18.8321 9.9053 19.0307 10.2026 19.2826 10.4464C19.5345 10.6901 19.8337 10.8747 20.16 10.9875L21.6 11.4875V13.475ZM12 7.5C11.0506 7.5 10.1226 7.79325 9.33326 8.34265C8.54391 8.89206 7.92868 9.67295 7.56538 10.5866C7.20208 11.5002 7.10702 12.5055 7.29223 13.4754C7.47744 14.4454 7.9346 15.3363 8.60589 16.0355C9.27718 16.7348 10.1325 17.211 11.0636 17.4039C11.9947 17.5968 12.9598 17.4978 13.8369 17.1194C14.714 16.741 15.4636 16.1001 15.9911 15.2778C16.5185 14.4556 16.8 13.4889 16.8 12.5C16.8 11.1739 16.2943 9.90215 15.3941 8.96447C14.4939 8.02678 13.273 7.5 12 7.5ZM12 15C11.5253 15 11.0613 14.8534 10.6666 14.5787C10.272 14.304 9.96434 13.9135 9.78269 13.4567C9.60104 12.9999 9.55351 12.4972 9.64612 12.0123C9.73872 11.5273 9.9673 11.0819 10.3029 10.7322C10.6386 10.3826 11.0662 10.1445 11.5318 10.048C11.9973 9.95157 12.4799 10.0011 12.9184 10.1903C13.357 10.3795 13.7318 10.7 13.9955 11.1111C14.2592 11.5222 14.4 12.0055 14.4 12.5C14.4 13.163 14.1471 13.7989 13.6971 14.2678C13.247 14.7366 12.6365 15 12 15Z" stroke="#776F6F" stroke-width="2" mask="url(#path-1-inside-1_28_48)"/>
<path fill-rule="evenodd" clip-rule="evenodd" d="M21.6 13.475L20.16 13.975C19.8289 14.0869 19.5251 14.2725 19.2697 14.5189C19.0143 14.7653 18.8134 15.0666 18.681 15.402C18.5485 15.7373 18.4877 16.0987 18.5027 16.461C18.5178 16.8233 18.6083 17.1778 18.768 17.5L19.452 18.925L18.132 20.3L16.8 19.55C16.4923 19.3903 16.1552 19.3013 15.8116 19.2891C15.468 19.2769 15.1258 19.3417 14.8084 19.4792C14.4909 19.6167 14.2055 19.8237 13.9715 20.086C13.7375 20.3484 13.5603 20.6601 13.452 21L12.972 22.5H11.064L10.584 21C10.4766 20.6551 10.2984 20.3386 10.0619 20.0726C9.82533 19.8065 9.53605 19.5973 9.21411 19.4593C8.89216 19.3214 8.54526 19.258 8.19747 19.2737C7.84968 19.2893 7.50932 19.3836 7.2 19.55L5.832 20.2625L4.512 18.8875L5.232 17.5C5.39172 17.1778 5.48223 16.8233 5.49726 16.461C5.51229 16.0987 5.45148 15.7373 5.31905 15.402C5.18662 15.0666 4.98574 14.7653 4.73034 14.5189C4.47494 14.2725 4.17113 14.0869 3.84 13.975L2.4 13.475V11.525L3.84 11.025C4.17113 10.9131 4.47494 10.7275 4.73034 10.4811C4.98574 10.2347 5.18662 9.93338 5.31905 9.59803C5.45148 9.26267 5.51229 8.90131 5.49726 8.53903C5.48223 8.17675 5.39172 7.82221 5.232 7.5L4.548 6.1125L5.868 4.7375L7.2 5.45C7.50932 5.61637 7.84968 5.71065 8.19747 5.72631C8.54526 5.74197 8.89216 5.67862 9.21411 5.54068C9.53605 5.40273 9.82533 5.19347 10.0619 4.92743C10.2984 4.66139 10.4766 4.34493 10.584 4L11.064 2.5H12.936L13.416 4C13.5234 4.34493 13.7016 4.66139 13.9381 4.92743C14.1747 5.19347 14.464 5.40273 14.7859 5.54068C15.1078 5.67862 15.4547 5.74197 15.8025 5.72631C16.1503 5.71065 16.4907 5.61637 16.8 5.45L18.168 4.7375L19.488 6.1125L18.768 7.5C18.6147 7.82056 18.5293 8.17168 18.5176 8.52961C18.5058 8.88754 18.5681 9.24391 18.7001 9.5746C18.8321 9.9053 19.0307 10.2026 19.2826 10.4464C19.5345 10.6901 19.8337 10.8747 20.16 10.9875L21.6 11.4875V13.475ZM9.33326 8.34265C10.1226 7.79325 11.0506 7.5 12 7.5C13.273 7.5 14.4939 8.02678 15.3941 8.96447C16.2943 9.90215 16.8 11.1739 16.8 12.5C16.8 13.4889 16.5185 14.4556 15.9911 15.2778C15.4636 16.1001 14.714 16.741 13.8369 17.1194C12.9598 17.4978 11.9947 17.5968 11.0636 17.4039C10.1325 17.211 9.27718 16.7348 8.60589 16.0355C7.9346 15.3363 7.47744 14.4454 7.29223 13.4754C7.10702 12.5055 7.20208 11.5002 7.56538 10.5866C7.92868 9.67295 8.54391 8.89206 9.33326 8.34265Z" stroke="#776F6F" stroke-width="2" mask="url(#path-1-inside-1_28_48)"/>
</svg>
