<svg width="39" height="29" viewBox="0 0 39 29" fill="none" xmlns="http://www.w3.org/2000/svg">
  <path d="M38.8469 27.4957L20.7396 0.521339C20.6108 0.362263 20.429 0.230677 20.2118 0.139337C19.9946 0.0479965 19.7494 0 19.5 0C19.2506 0 19.0054 0.0479965 18.7882 0.139337C18.571 0.230677 18.3892 0.362263 18.2604 0.521339L0.153133 27.4957C0.0443443 27.6534 -0.00804927 27.8294 0.00100202 28.0067C0.0100533 28.1839 0.0802443 28.3564 0.20481 28.5076C0.329376 28.6587 0.504117 28.7834 0.712192 28.8697C0.920267 28.9559 1.15466 29.0008 1.39278 29H37.6072C37.8453 29.0008 38.0797 28.9559 38.2878 28.8697C38.4959 28.7834 38.6706 28.6587 38.7952 28.5076C38.9198 28.3564 38.9899 28.1839 38.999 28.0067C39.008 27.8294 38.9557 27.6534 38.8469 27.4957ZM17.0625 9.63036C17.1955 9.52272 17.357 9.43674 17.5368 9.37782C17.7165 9.3189 17.9107 9.28831 18.1071 9.28799H20.8929C21.0893 9.28831 21.2835 9.3189 21.4632 9.37782C21.643 9.43674 21.8045 9.52272 21.9375 9.63036C22.0661 9.74032 22.1623 9.86917 22.2199 10.0086C22.2775 10.148 22.2952 10.2948 22.2718 10.4396L20.8789 19.7768C20.8427 20.0304 20.6818 20.265 20.4272 20.4355C20.1726 20.606 19.8424 20.7004 19.5 20.7004C19.1576 20.7004 18.8274 20.606 18.5728 20.4355C18.3182 20.265 18.1573 20.0304 18.1211 19.7768L16.7282 10.4396C16.7048 10.2948 16.7225 10.148 16.7801 10.0086C16.8377 9.86917 16.9339 9.74032 17.0625 9.63036ZM19.5 25.8876C18.949 25.8876 18.4104 25.7659 17.9523 25.5379C17.4942 25.3099 17.1372 24.9858 16.9263 24.6067C16.7155 24.2275 16.6603 23.8103 16.7678 23.4078C16.8753 23.0053 17.1406 22.6356 17.5302 22.3454C17.9198 22.0552 18.4162 21.8576 18.9565 21.7775C19.4969 21.6975 20.057 21.7386 20.5661 21.8956C21.0751 22.0527 21.5101 22.3186 21.8162 22.6598C22.1223 23.0011 22.2857 23.4022 22.2857 23.8126C22.2836 24.3624 21.9894 24.8893 21.4674 25.278C20.9455 25.6668 20.2382 25.886 19.5 25.8876Z" fill="yellow"/>
</svg>
