<svg width="44" height="42" viewBox="0 0 44 42" fill="none" xmlns="http://www.w3.org/2000/svg">
<path d="M34.288 32.1284C36.6484 29.4061 37.9376 25.9818 37.9324 22.4481C37.9324 14.0496 30.7998 7.24121 22.0013 7.24121C13.2029 7.24121 6.07031 14.0496 6.07031 22.4481C6.07031 26.1253 7.43886 29.4983 9.71473 32.1284L6.51486 35.1828C6.23037 35.4544 6.07054 35.8227 6.07054 36.2067C6.07054 36.5908 6.23037 36.9591 6.51486 37.2307C6.79936 37.5022 7.18522 37.6548 7.58755 37.6548C7.98989 37.6548 8.37575 37.5022 8.66024 37.2307L11.8601 34.1762C14.6154 36.3487 18.1491 37.655 22.0013 37.655C25.8536 37.655 29.3873 36.3487 32.1426 34.1762L35.3424 37.2307C35.483 37.3656 35.6502 37.4727 35.8343 37.5458C36.0184 37.6189 36.2158 37.6565 36.4151 37.6565C36.6145 37.6565 36.8119 37.6189 36.996 37.5458C37.1801 37.4727 37.3473 37.3656 37.4878 37.2307C37.6289 37.0963 37.7407 36.9367 37.8171 36.761C37.8934 36.5853 37.9327 36.3969 37.9327 36.2067C37.9327 36.0165 37.8934 35.8282 37.8171 35.6525C37.7407 35.4768 37.6289 35.3172 37.4878 35.1828L34.288 32.1284ZM23.5186 23.8964H12.1393V20.9998H20.4841V10.1378H23.5186V23.8964Z" fill="#2738CD"/>
<path d="M14.2749 5.92624C13.0504 4.91109 11.4846 4.34981 9.86274 4.34473C8.05195 4.34473 6.31533 5.03136 5.03491 6.25358C3.75449 7.4758 3.03516 9.13349 3.03516 10.862C3.03516 12.4768 3.6724 13.9352 4.69198 15.0736C6.60038 11.0041 10.0117 7.74789 14.2749 5.92624Z" fill="#2738CD"/>
<path d="M39.3095 15.0736C40.373 13.9048 40.961 12.4101 40.9663 10.862C40.9663 9.13349 40.247 7.4758 38.9665 6.25358C37.6861 5.03136 35.9495 4.34473 34.1387 4.34473C32.447 4.34473 30.9191 4.953 29.7266 5.92624C33.9898 7.74789 37.4011 11.0041 39.3095 15.0736Z" fill="#2738CD"/>
</svg>
