<svg width="24" height="25" viewBox="0 0 24 25" fill="none" xmlns="http://www.w3.org/2000/svg">
<path d="M12.2308 23.6607C12.2308 23.5119 12.1538 23.4375 12 23.4375C11.4327 23.4375 10.9447 23.2399 10.5361 22.8446C10.1274 22.4493 9.92308 21.9773 9.92308 21.4286C9.92308 21.2798 9.84615 21.2054 9.69231 21.2054C9.53846 21.2054 9.46154 21.2798 9.46154 21.4286C9.46154 22.1075 9.70913 22.6865 10.2043 23.1655C10.6995 23.6444 11.2981 23.8839 12 23.8839C12.1538 23.8839 12.2308 23.8095 12.2308 23.6607ZM24 19.6429C24 20.1265 23.8173 20.545 23.4519 20.8984C23.0865 21.2519 22.6538 21.4286 22.1538 21.4286H15.6923C15.6923 22.4144 15.3317 23.2561 14.6106 23.9537C13.8894 24.6512 13.0192 25 12 25C10.9808 25 10.1106 24.6512 9.38942 23.9537C8.66827 23.2561 8.30769 22.4144 8.30769 21.4286H1.84615C1.34615 21.4286 0.913462 21.2519 0.548077 20.8984C0.182692 20.545 0 20.1265 0 19.6429C0.480769 19.2522 0.918269 18.843 1.3125 18.4152C1.70673 17.9874 2.11538 17.4316 2.53846 16.748C2.96154 16.0645 3.31971 15.3274 3.61298 14.5368C3.90625 13.7463 4.14663 12.7883 4.33413 11.6629C4.52163 10.5376 4.61538 9.3285 4.61538 8.03571C4.61538 6.62202 5.17788 5.30831 6.30288 4.09459C7.42788 2.88086 8.90385 2.14379 10.7308 1.88337C10.6538 1.70666 10.6154 1.5253 10.6154 1.33929C10.6154 0.967262 10.75 0.651042 11.0192 0.390625C11.2885 0.130208 11.6154 0 12 0C12.3846 0 12.7115 0.130208 12.9808 0.390625C13.25 0.651042 13.3846 0.967262 13.3846 1.33929C13.3846 1.5253 13.3462 1.70666 13.2692 1.88337C15.0962 2.14379 16.5721 2.88086 17.6971 4.09459C18.8221 5.30831 19.3846 6.62202 19.3846 8.03571C19.3846 9.3285 19.4784 10.5376 19.6659 11.6629C19.8534 12.7883 20.0938 13.7463 20.387 14.5368C20.6803 15.3274 21.0385 16.0645 21.4615 16.748C21.8846 17.4316 22.2933 17.9874 22.6875 18.4152C23.0817 18.843 23.5192 19.2522 24 19.6429Z" fill="#776F6F"/>
</svg>
