<svg width="27" height="27" viewBox="0 0 27 27" fill="none" xmlns="http://www.w3.org/2000/svg">
<path d="M2.19444 14.9154H10.8611C11.6556 14.9154 12.3056 14.2624 12.3056 13.4644V1.85716C12.3056 1.05916 11.6556 0.40625 10.8611 0.40625H2.19444C1.4 0.40625 0.75 1.05916 0.75 1.85716V13.4644C0.75 14.2624 1.4 14.9154 2.19444 14.9154ZM2.19444 26.5226H10.8611C11.6556 26.5226 12.3056 25.8697 12.3056 25.0717V19.2681C13.1 19.2681 12.3056 18.4701 12.3056 19.2681L2.19444 17.8172C1.4 17.8172 0.75 18.4701 0.75 19.2681V25.0717C0.75 25.8697 1.4 26.5226 2.19444 26.5226ZM16.6389 26.5226H25.3056C26.1 26.5226 26.75 25.8697 26.75 25.0717V13.4644C26.75 12.6664 26.1 12.0135 25.3056 12.0135H16.6389C15.8444 12.0135 15.1944 12.6664 15.1944 13.4644V25.0717C15.1944 25.8697 15.8444 26.5226 16.6389 26.5226ZM15.1944 1.85716V7.6608C15.1944 8.4588 15.8444 9.11171 16.6389 9.11171H25.3056C26.1 9.11171 26.75 8.4588 26.75 7.6608V1.85716C26.75 1.05916 26.1 0.40625 25.3056 0.40625H16.6389C15.8444 0.40625 15.1944 1.05916 15.1944 1.85716Z" fill="black"/>
</svg>
