<svg width="25" height="26" viewBox="0 0 25 26" fill="none" xmlns="http://www.w3.org/2000/svg">
<path d="M6.29273 7.08716L6.29273 7.08715C6.98358 6.01542 7.78699 5.14931 8.7876 4.55427C9.79185 3.95707 10.9632 3.65168 12.3588 3.65406C13.8515 3.6566 15.3738 4.26283 16.5243 5.25645C17.6777 6.25258 18.4905 7.66934 18.4878 9.30564C18.4859 10.3695 18.2067 11.1969 17.7723 11.8552C17.3426 12.5062 16.7786 12.9653 16.2482 13.3222C15.9914 13.495 15.7358 13.6479 15.5071 13.7849L15.4862 13.7975C15.2465 13.941 15.0432 14.0635 14.8727 14.1841C14.5083 14.442 14.4536 14.5833 14.4535 14.6751L14.4534 14.7423C14.4523 15.3331 13.9867 15.8464 13.3708 15.8453L10.6612 15.8407C10.0453 15.8396 9.58138 15.3247 9.58239 14.734L9.58274 14.5324C9.58667 12.221 11.2608 11.2514 12.3707 10.6086C12.4084 10.5868 12.4455 10.5653 12.4818 10.5441L6.29273 7.08716ZM6.29273 7.08716C5.98525 7.56418 6.08093 8.21173 6.53237 8.56956L6.53239 8.56957M6.29273 7.08716L6.53239 8.56957M6.53239 8.56957L8.20909 9.89853M6.53239 8.56957L8.20909 9.89853M8.20909 9.89853C8.2091 9.89853 8.2091 9.89854 8.20911 9.89854M8.20909 9.89853L8.20911 9.89854M8.20911 9.89854C8.68351 10.2746 9.3614 10.1815 9.72442 9.70352M8.20911 9.89854L9.72442 9.70352M9.72442 9.70352C10.1619 9.12761 10.4866 8.73504 10.8405 8.47657M9.72442 9.70352L10.8405 8.47657M10.8405 8.47657C11.1695 8.23632 11.5415 8.1006 12.1012 8.10156M10.8405 8.47657L12.1012 8.10156M12.1012 8.10156C12.4956 8.10223 12.9506 8.2388 13.2966 8.47384M12.1012 8.10156L13.2966 8.47384M13.2966 8.47384C13.6438 8.70971 13.8109 8.99001 13.8104 9.26566M13.2966 8.47384L13.8104 9.26566M13.8104 9.26566C13.81 9.4805 13.7365 9.64269 13.5408 9.83128M13.8104 9.26566L13.5408 9.83128M13.5408 9.83128C13.32 10.044 12.9815 10.2534 12.4819 10.5441L13.5408 9.83128ZM23.5216 12.54C23.5103 19.1883 18.333 24.5312 12.0012 24.5204C5.66939 24.5096 0.510339 19.1492 0.521668 12.5008C0.53299 5.85644 5.71039 0.509658 12.0421 0.520448C18.3738 0.531237 23.533 5.89563 23.5216 12.54ZM12.0155 16.1535C10.4929 16.1509 9.28747 17.4322 9.28485 18.9674C9.28224 20.5025 10.4833 21.788 12.0059 21.7906C13.5284 21.7932 14.7338 20.5118 14.7365 18.9767C14.7391 17.4415 13.538 16.1561 12.0155 16.1535Z" fill="#776F6F" stroke="#776F6F"/>
</svg>
