<svg width="39" height="37" viewBox="0 0 39 37" fill="none" xmlns="http://www.w3.org/2000/svg">
<path d="M39 18.5C39 21.0052 38.4837 23.398 37.4512 25.6784C36.4186 27.9588 35.0306 29.926 33.2871 31.5801C31.5436 33.2342 29.4701 34.551 27.0664 35.5306C24.6628 36.5102 22.1406 37 19.5 37C16.5885 37 13.821 36.4179 11.1973 35.2536C8.57357 34.0893 6.33919 32.4473 4.49414 30.3275C4.37565 30.1669 4.32064 29.9862 4.3291 29.7855C4.33756 29.5847 4.40951 29.4201 4.54492 29.2917L8.02344 25.9674C8.19271 25.8229 8.4043 25.7507 8.6582 25.7507C8.92904 25.7828 9.1237 25.8791 9.24219 26.0397C10.4779 27.5653 11.9928 28.7457 13.7871 29.5807C15.5814 30.4158 17.4857 30.8333 19.5 30.8333C21.2604 30.8333 22.9404 30.5081 24.54 29.8577C26.1396 29.2074 27.5234 28.3281 28.6914 27.2201C29.8594 26.112 30.7861 24.7992 31.4717 23.2816C32.1572 21.764 32.5 20.1701 32.5 18.5C32.5 16.8299 32.1572 15.236 31.4717 13.7184C30.7861 12.2008 29.8594 10.888 28.6914 9.77995C27.5234 8.67188 26.1396 7.79264 24.54 7.14225C22.9404 6.49186 21.2604 6.16667 19.5 6.16667C17.8411 6.16667 16.25 6.45171 14.7266 7.02181C13.2031 7.59191 11.849 8.4069 10.6641 9.4668L14.1426 12.791C14.6673 13.2728 14.7858 13.8268 14.498 14.4531C14.2103 15.0955 13.7109 15.4167 13 15.4167H1.625C1.1849 15.4167 0.804036 15.2641 0.482422 14.959C0.160807 14.6539 0 14.2925 0 13.875V3.08333C0 2.40885 0.338542 1.93511 1.01562 1.66211C1.67578 1.38911 2.25977 1.50152 2.76758 1.99935L6.06836 5.10677C7.87956 3.48481 9.94889 2.22819 12.2764 1.33691C14.6038 0.445638 17.0117 0 19.5 0C22.1406 0 24.6628 0.4898 27.0664 1.4694C29.4701 2.449 31.5436 3.76584 33.2871 5.41992C35.0306 7.074 36.4186 9.04123 37.4512 11.3216C38.4837 13.602 39 15.9948 39 18.5ZM22.75 11.5625V22.3542C22.75 22.579 22.6738 22.7637 22.5215 22.9082C22.3691 23.0527 22.1745 23.125 21.9375 23.125H13.8125C13.5755 23.125 13.3809 23.0527 13.2285 22.9082C13.0762 22.7637 13 22.579 13 22.3542V20.8125C13 20.5877 13.0762 20.403 13.2285 20.2585C13.3809 20.1139 13.5755 20.0417 13.8125 20.0417H19.5V11.5625C19.5 11.3377 19.5762 11.153 19.7285 11.0085C19.8809 10.8639 20.0755 10.7917 20.3125 10.7917H21.9375C22.1745 10.7917 22.3691 10.8639 22.5215 11.0085C22.6738 11.153 22.75 11.3377 22.75 11.5625Z" fill="black"/>
</svg>
