<svg width="67" height="57" viewBox="0 0 67 57" fill="none" xmlns="http://www.w3.org/2000/svg">
<ellipse cx="40.5" cy="21.4535" rx="8.5" ry="7.4535" fill="#2738CD"/>
<path d="M19.4348 56.1907C16.4663 54.7845 15.7795 53.3276 15.7639 48.4036L15.7487 43.6986L9.73175 43.4968C4.20262 43.3113 3.5643 43.1653 1.85741 41.6944C0.370931 40.4135 0 39.5683 0 37.4619C0 35.2187 0.323217 34.5813 2.1886 33.1456L4.37713 31.4612L23.6338 31.4481C40.9285 31.4372 43.1682 31.3266 45.6236 30.3661C56.8769 25.9634 53.3626 11.8339 41.0136 11.8339C35.2302 11.8339 31.7581 14.3322 29.8186 19.8896C28.0193 25.0461 26.3774 27.1665 23.5647 27.9661C21.6856 28.5004 20.7568 28.4627 18.8457 27.775C15.9731 26.7411 15.5115 25.5044 15.8489 19.7471C16.3079 11.9191 21.8418 4.98149 30.3749 1.53572C33.7364 0.178421 34.9956 0 41.2147 0C47.5758 0 48.6206 0.156214 52.0973 1.62692C60.1714 5.04208 65.7163 12.0494 66.4695 19.7903C67.4339 29.6991 60.2089 39.0602 48.9711 42.4625C46.1296 43.3226 43.4738 43.5832 37.5456 43.5832H29.822V47.3539C29.822 49.4279 29.3931 52.0082 28.8697 53.0882C27.3618 56.196 22.6902 57.7325 19.4348 56.1907Z" fill="black"/>
<rect x="26.6133" y="13.7969" width="0.701059" height="3.65824" transform="rotate(34.7099 26.6133 13.7969)" fill="#D9D9D9"/>
<rect x="39.1602" y="5.58105" width="0.701059" height="3.67978" transform="rotate(79.6458 39.1602 5.58105)" fill="#D9D9D9"/>
<rect x="51.5273" y="8.55273" width="0.701059" height="3.67978" transform="rotate(128.706 51.5273 8.55273)" fill="#D9D9D9"/>
<rect x="59.1016" y="17.5352" width="0.701059" height="3.67978" transform="rotate(157.196 59.1016 17.5352)" fill="#D9D9D9"/>
<rect x="57.1719" y="30.623" width="0.701059" height="3.67978" transform="rotate(-140.841 57.1719 30.623)" fill="#D9D9D9"/>
<rect x="47.0547" y="37.2207" width="0.701059" height="3.67978" transform="rotate(-94.4021 47.0547 37.2207)" fill="#D9D9D9"/>
<rect x="31.1016" y="38.2539" width="0.701059" height="3.67978" transform="rotate(-91.1508 31.1016 38.2539)" fill="#D9D9D9"/>
<rect x="15.125" y="38.3535" width="0.701059" height="3.67978" transform="rotate(-91.1508 15.125 38.3535)" fill="#D9D9D9"/>
</svg>
