<svg width="40" height="31" viewBox="0 0 40 31" fill="none" xmlns="http://www.w3.org/2000/svg">
<path fill-rule="evenodd" clip-rule="evenodd" d="M6.6 0.0986328H33.9C35.4515 0.0986328 36.9395 0.733604 38.0366 1.86386C39.1337 2.99411 39.75 4.52707 39.75 6.12549V24.2061C39.75 25.8045 39.1337 27.3374 38.0366 28.4677C36.9395 29.598 35.4515 30.2329 33.9 30.2329H6.6C5.04848 30.2329 3.56051 29.598 2.46343 28.4677C1.36634 27.3374 0.75 25.8045 0.75 24.2061V6.12549C0.75 4.52707 1.36634 2.99411 2.46343 1.86386C3.56051 0.733604 5.04848 0.0986328 6.6 0.0986328ZM10.5 20.1882H16.35C16.8672 20.1882 17.3632 19.9765 17.7289 19.5998C18.0946 19.223 18.3 18.712 18.3 18.1792C18.3 17.6464 18.0946 17.1354 17.7289 16.7587C17.3632 16.3819 16.8672 16.1703 16.35 16.1703H10.5C9.98283 16.1703 9.48684 16.3819 9.12114 16.7587C8.75545 17.1354 8.55 17.6464 8.55 18.1792C8.55 18.712 8.75545 19.223 9.12114 19.5998C9.48684 19.9765 9.98283 20.1882 10.5 20.1882ZM4.65 8.13444H35.85V6.12549C35.85 5.59268 35.6446 5.0817 35.2789 4.70495C34.9132 4.3282 34.4172 4.11654 33.9 4.11654H6.6C6.08283 4.11654 5.58684 4.3282 5.22114 4.70495C4.85545 5.0817 4.65 5.59268 4.65 6.12549V8.13444Z" fill="black"/>
</svg>
